<svg xmlns="http://www.w3.org/2000/svg" width="528" height="640" viewBox="-8 -8 528 640">
<rect x="-8" y="-8" width="528" height="640" fill="#ffffff"/>
<rect x="0" y="0" width="78" height="73" fill="#ddc2ef" fill-opacity="0.55"/>
<rect x="82" y="0" width="31" height="73" fill="#bfe3bf" fill-opacity="0.55"/>
<rect x="117" y="0" width="58" height="37" fill="#f2cf9e" fill-opacity="0.55"/>
<rect x="187" y="0" width="16" height="118" fill="#f2cf9e" fill-opacity="0.55"/>
<rect x="215" y="0" width="152" height="42" fill="#f2cf9e" fill-opacity="0.55"/>
<rect x="379" y="0" width="56" height="105" fill="#f2cf9e" fill-opacity="0.55"/>
<rect x="439" y="0" width="73" height="24" fill="#bfe3bf" fill-opacity="0.55"/>
<rect x="439" y="28" width="73" height="77" fill="#bfe3bf" fill-opacity="0.55"/>
<rect x="117" y="41" width="58" height="77" fill="#f2cf9e" fill-opacity="0.55"/>
<rect x="215" y="46" width="39" height="131" fill="#f2cf9e" fill-opacity="0.55"/>
<rect x="258" y="46" width="58" height="61" fill="#f2cf9e" fill-opacity="0.55"/>
<rect x="320" y="46" width="47" height="61" fill="#f2cf9e" fill-opacity="0.55"/>
<rect x="0" y="77" width="78" height="41" fill="#ddc2ef" fill-opacity="0.55"/>
<rect x="82" y="77" width="31" height="41" fill="#bfe3bf" fill-opacity="0.55"/>
<rect x="258" y="111" width="58" height="66" fill="#bfe3bf" fill-opacity="0.55"/>
<rect x="320" y="111" width="47" height="66" fill="#bfe3bf" fill-opacity="0.55"/>
<rect x="379" y="113" width="56" height="38" fill="#ddc2ef" fill-opacity="0.55"/>
<rect x="439" y="113" width="34" height="38" fill="#ddc2ef" fill-opacity="0.55"/>
<rect x="477" y="113" width="35" height="38" fill="#ddc2ef" fill-opacity="0.55"/>
<rect x="0" y="126" width="48" height="113" fill="#bfe3bf" fill-opacity="0.55"/>
<rect x="52" y="126" width="26" height="113" fill="#bfe3bf" fill-opacity="0.55"/>
<rect x="82" y="126" width="31" height="53" fill="#bfe3bf" fill-opacity="0.55"/>
<rect x="117" y="126" width="58" height="53" fill="#f2cf9e" fill-opacity="0.55"/>
<rect x="187" y="126" width="16" height="51" fill="#bfe3bf" fill-opacity="0.55"/>
<rect x="379" y="155" width="56" height="24" fill="#bfe3bf" fill-opacity="0.55"/>
<rect x="439" y="155" width="34" height="24" fill="#bfe3bf" fill-opacity="0.55"/>
<rect x="477" y="155" width="35" height="24" fill="#bfe3bf" fill-opacity="0.55"/>
<rect x="82" y="183" width="67" height="56" fill="#bfe3bf" fill-opacity="0.55"/>
<rect x="153" y="183" width="22" height="56" fill="#ddc2ef" fill-opacity="0.55"/>
<rect x="379" y="183" width="56" height="60" fill="#bfe3bf" fill-opacity="0.55"/>
<rect x="439" y="183" width="73" height="60" fill="#bfe3bf" fill-opacity="0.55"/>
<rect x="187" y="185" width="16" height="54" fill="#bcd9f7" fill-opacity="0.55"/>
<rect x="215" y="185" width="37" height="54" fill="#bcd9f7" fill-opacity="0.55"/>
<rect x="260" y="185" width="54" height="54" fill="#bcd9f7" fill-opacity="0.55"/>
<rect x="322" y="185" width="45" height="54" fill="#bcd9f7" fill-opacity="0.55"/>
<rect x="379" y="247" width="56" height="48" fill="#bfe3bf" fill-opacity="0.55"/>
<rect x="439" y="247" width="73" height="48" fill="#bfe3bf" fill-opacity="0.55"/>
<rect x="0" y="251" width="76" height="79" fill="#bfe3bf" fill-opacity="0.55"/>
<rect x="84" y="251" width="32" height="44" fill="#bfe3bf" fill-opacity="0.55"/>
<rect x="120" y="251" width="55" height="44" fill="#bfe3bf" fill-opacity="0.55"/>
<rect x="187" y="251" width="16" height="42" fill="#bcd9f7" fill-opacity="0.55"/>
<rect x="215" y="251" width="37" height="42" fill="#bcd9f7" fill-opacity="0.55"/>
<rect x="260" y="251" width="20" height="42" fill="#bcd9f7" fill-opacity="0.55"/>
<rect x="288" y="251" width="26" height="42" fill="#bcd9f7" fill-opacity="0.55"/>
<rect x="322" y="251" width="45" height="42" fill="#bcd9f7" fill-opacity="0.55"/>
<rect x="84" y="299" width="32" height="60" fill="#bfe3bf" fill-opacity="0.55"/>
<rect x="120" y="299" width="55" height="60" fill="#bfe3bf" fill-opacity="0.55"/>
<rect x="379" y="299" width="56" height="26" fill="#bfe3bf" fill-opacity="0.55"/>
<rect x="439" y="299" width="73" height="26" fill="#bfe3bf" fill-opacity="0.55"/>
<rect x="187" y="301" width="16" height="56" fill="#bcd9f7" fill-opacity="0.55"/>
<rect x="215" y="301" width="37" height="56" fill="#bcd9f7" fill-opacity="0.55"/>
<rect x="260" y="301" width="54" height="22" fill="#bcd9f7" fill-opacity="0.55"/>
<rect x="322" y="301" width="45" height="22" fill="#bcd9f7" fill-opacity="0.55"/>
<rect x="379" y="329" width="56" height="65" fill="#bfe3bf" fill-opacity="0.55"/>
<rect x="439" y="329" width="73" height="65" fill="#bfe3bf" fill-opacity="0.55"/>
<rect x="260" y="331" width="16" height="26" fill="#bcd9f7" fill-opacity="0.55"/>
<rect x="284" y="331" width="30" height="26" fill="#bcd9f7" fill-opacity="0.55"/>
<rect x="322" y="331" width="45" height="26" fill="#bcd9f7" fill-opacity="0.55"/>
<rect x="0" y="334" width="76" height="60" fill="#bfe3bf" fill-opacity="0.55"/>
<rect x="84" y="363" width="91" height="31" fill="#bfe3bf" fill-opacity="0.55"/>
<rect x="187" y="365" width="16" height="29" fill="#bcd9f7" fill-opacity="0.55"/>
<rect x="215" y="365" width="37" height="29" fill="#bcd9f7" fill-opacity="0.55"/>
<rect x="260" y="365" width="54" height="29" fill="#bcd9f7" fill-opacity="0.55"/>
<rect x="322" y="365" width="45" height="29" fill="#bcd9f7" fill-opacity="0.55"/>
<rect x="0" y="406" width="78" height="106" fill="#bfe3bf" fill-opacity="0.55"/>
<rect x="82" y="406" width="35" height="106" fill="#bfe3bf" fill-opacity="0.55"/>
<rect x="125" y="406" width="50" height="42" fill="#bfe3bf" fill-opacity="0.55"/>
<rect x="187" y="406" width="16" height="106" fill="#bfe3bf" fill-opacity="0.55"/>
<rect x="215" y="406" width="39" height="53" fill="#bfe3bf" fill-opacity="0.55"/>
<rect x="258" y="406" width="56" height="53" fill="#bfe3bf" fill-opacity="0.55"/>
<rect x="322" y="406" width="45" height="53" fill="#bfe3bf" fill-opacity="0.55"/>
<rect x="379" y="406" width="25" height="53" fill="#ddc2ef" fill-opacity="0.55"/>
<rect x="408" y="406" width="27" height="53" fill="#bfe3bf" fill-opacity="0.55"/>
<rect x="439" y="406" width="25" height="53" fill="#bfe3bf" fill-opacity="0.55"/>
<rect x="472" y="406" width="40" height="106" fill="#bfe3bf" fill-opacity="0.55"/>
<rect x="125" y="452" width="50" height="60" fill="#bfe3bf" fill-opacity="0.55"/>
<rect x="215" y="463" width="39" height="49" fill="#bfe3bf" fill-opacity="0.55"/>
<rect x="258" y="463" width="56" height="49" fill="#bfe3bf" fill-opacity="0.55"/>
<rect x="322" y="463" width="45" height="49" fill="#bfe3bf" fill-opacity="0.55"/>
<rect x="379" y="463" width="25" height="49" fill="#ddc2ef" fill-opacity="0.55"/>
<rect x="408" y="463" width="56" height="49" fill="#bfe3bf" fill-opacity="0.55"/>
<rect x="48" y="122" width="4" height="123" fill="#a6a6a6"/>
<rect x="78" y="0" width="4" height="75" fill="#a6a6a6"/>
<rect x="78" y="75" width="4" height="47" fill="#a6a6a6"/>
<rect x="78" y="122" width="4" height="59" fill="#a6a6a6"/>
<rect x="78" y="181" width="4" height="64" fill="#a6a6a6"/>
<rect x="76" y="245" width="8" height="52" fill="#6e6e6e"/>
<rect x="76" y="297" width="8" height="35" fill="#6e6e6e"/>
<rect x="76" y="332" width="8" height="29" fill="#6e6e6e"/>
<rect x="76" y="361" width="8" height="39" fill="#6e6e6e"/>
<rect x="78" y="400" width="4" height="112" fill="#a6a6a6"/>
<rect x="113" y="0" width="4" height="39" fill="#a6a6a6"/>
<rect x="113" y="39" width="4" height="36" fill="#a6a6a6"/>
<rect x="113" y="75" width="4" height="47" fill="#a6a6a6"/>
<rect x="113" y="122" width="4" height="59" fill="#a6a6a6"/>
<rect x="116" y="245" width="4" height="52" fill="#a6a6a6"/>
<rect x="116" y="297" width="4" height="64" fill="#a6a6a6"/>
<rect x="117" y="400" width="8" height="50" fill="#6e6e6e"/>
<rect x="117" y="450" width="8" height="62" fill="#6e6e6e"/>
<rect x="149" y="181" width="4" height="64" fill="#a6a6a6"/>
<rect x="175" y="0" width="12" height="39" fill="#2b2b2b"/>
<rect x="175" y="39" width="12" height="83" fill="#2b2b2b"/>
<rect x="175" y="122" width="12" height="59" fill="#2b2b2b"/>
<rect x="175" y="181" width="12" height="64" fill="#2b2b2b"/>
<rect x="175" y="245" width="12" height="52" fill="#2b2b2b"/>
<rect x="175" y="297" width="12" height="64" fill="#2b2b2b"/>
<rect x="175" y="361" width="12" height="39" fill="#2b2b2b"/>
<rect x="175" y="400" width="12" height="50" fill="#2b2b2b"/>
<rect x="175" y="450" width="12" height="62" fill="#2b2b2b"/>
<rect x="203" y="0" width="12" height="44" fill="#2b2b2b"/>
<rect x="203" y="44" width="12" height="78" fill="#2b2b2b"/>
<rect x="203" y="122" width="12" height="59" fill="#2b2b2b"/>
<rect x="203" y="181" width="12" height="64" fill="#2b2b2b"/>
<rect x="203" y="245" width="12" height="52" fill="#2b2b2b"/>
<rect x="203" y="297" width="12" height="64" fill="#2b2b2b"/>
<rect x="203" y="361" width="12" height="39" fill="#2b2b2b"/>
<rect x="203" y="400" width="12" height="61" fill="#2b2b2b"/>
<rect x="203" y="461" width="12" height="51" fill="#2b2b2b"/>
<rect x="254" y="44" width="4" height="65" fill="#a6a6a6"/>
<rect x="254" y="109" width="4" height="72" fill="#a6a6a6"/>
<rect x="252" y="181" width="8" height="64" fill="#6e6e6e"/>
<rect x="252" y="245" width="8" height="52" fill="#6e6e6e"/>
<rect x="252" y="297" width="8" height="30" fill="#6e6e6e"/>
<rect x="252" y="327" width="8" height="34" fill="#6e6e6e"/>
<rect x="252" y="361" width="8" height="39" fill="#6e6e6e"/>
<rect x="254" y="400" width="4" height="61" fill="#a6a6a6"/>
<rect x="254" y="461" width="4" height="51" fill="#a6a6a6"/>
<rect x="276" y="327" width="8" height="34" fill="#6e6e6e"/>
<rect x="280" y="245" width="8" height="52" fill="#6e6e6e"/>
<rect x="316" y="44" width="4" height="65" fill="#a6a6a6"/>
<rect x="316" y="109" width="4" height="72" fill="#a6a6a6"/>
<rect x="314" y="181" width="8" height="64" fill="#6e6e6e"/>
<rect x="314" y="245" width="8" height="52" fill="#6e6e6e"/>
<rect x="314" y="297" width="8" height="30" fill="#6e6e6e"/>
<rect x="314" y="327" width="8" height="34" fill="#6e6e6e"/>
<rect x="314" y="361" width="8" height="39" fill="#6e6e6e"/>
<rect x="314" y="400" width="8" height="61" fill="#6e6e6e"/>
<rect x="314" y="461" width="8" height="51" fill="#6e6e6e"/>
<rect x="367" y="0" width="12" height="44" fill="#2b2b2b"/>
<rect x="367" y="44" width="12" height="65" fill="#2b2b2b"/>
<rect x="367" y="109" width="12" height="44" fill="#2b2b2b"/>
<rect x="367" y="153" width="12" height="28" fill="#2b2b2b"/>
<rect x="367" y="181" width="12" height="64" fill="#2b2b2b"/>
<rect x="367" y="245" width="12" height="52" fill="#2b2b2b"/>
<rect x="367" y="297" width="12" height="30" fill="#2b2b2b"/>
<rect x="367" y="327" width="12" height="34" fill="#2b2b2b"/>
<rect x="367" y="361" width="12" height="39" fill="#2b2b2b"/>
<rect x="367" y="400" width="12" height="61" fill="#2b2b2b"/>
<rect x="367" y="461" width="12" height="51" fill="#2b2b2b"/>
<rect x="404" y="400" width="4" height="61" fill="#a6a6a6"/>
<rect x="404" y="461" width="4" height="51" fill="#a6a6a6"/>
<rect x="435" y="0" width="4" height="26" fill="#a6a6a6"/>
<rect x="435" y="26" width="4" height="83" fill="#a6a6a6"/>
<rect x="435" y="109" width="4" height="44" fill="#a6a6a6"/>
<rect x="435" y="153" width="4" height="28" fill="#a6a6a6"/>
<rect x="435" y="181" width="4" height="64" fill="#a6a6a6"/>
<rect x="435" y="245" width="4" height="52" fill="#a6a6a6"/>
<rect x="435" y="297" width="4" height="30" fill="#a6a6a6"/>
<rect x="435" y="327" width="4" height="73" fill="#a6a6a6"/>
<rect x="435" y="400" width="4" height="61" fill="#a6a6a6"/>
<rect x="464" y="400" width="8" height="61" fill="#6e6e6e"/>
<rect x="464" y="461" width="8" height="51" fill="#6e6e6e"/>
<rect x="473" y="109" width="4" height="44" fill="#a6a6a6"/>
<rect x="473" y="153" width="4" height="28" fill="#a6a6a6"/>
<rect x="437" y="24" width="75" height="4" fill="#a6a6a6"/>
<rect x="115" y="37" width="66" height="4" fill="#a6a6a6"/>
<rect x="209" y="42" width="47" height="4" fill="#a6a6a6"/>
<rect x="256" y="42" width="62" height="4" fill="#a6a6a6"/>
<rect x="318" y="42" width="55" height="4" fill="#a6a6a6"/>
<rect x="0" y="73" width="80" height="4" fill="#a6a6a6"/>
<rect x="80" y="73" width="35" height="4" fill="#a6a6a6"/>
<rect x="256" y="107" width="62" height="4" fill="#a6a6a6"/>
<rect x="318" y="107" width="55" height="4" fill="#a6a6a6"/>
<rect x="373" y="105" width="64" height="8" fill="#6e6e6e"/>
<rect x="437" y="105" width="38" height="8" fill="#6e6e6e"/>
<rect x="475" y="105" width="37" height="8" fill="#6e6e6e"/>
<rect x="0" y="118" width="50" height="8" fill="#6e6e6e"/>
<rect x="50" y="118" width="30" height="8" fill="#6e6e6e"/>
<rect x="80" y="118" width="35" height="8" fill="#6e6e6e"/>
<rect x="115" y="118" width="66" height="8" fill="#6e6e6e"/>
<rect x="181" y="118" width="28" height="8" fill="#6e6e6e"/>
<rect x="373" y="151" width="64" height="4" fill="#a6a6a6"/>
<rect x="437" y="151" width="38" height="4" fill="#a6a6a6"/>
<rect x="475" y="151" width="37" height="4" fill="#a6a6a6"/>
<rect x="80" y="179" width="35" height="4" fill="#a6a6a6"/>
<rect x="115" y="179" width="36" height="4" fill="#a6a6a6"/>
<rect x="151" y="179" width="30" height="4" fill="#a6a6a6"/>
<rect x="181" y="177" width="28" height="8" fill="#6e6e6e"/>
<rect x="209" y="177" width="47" height="8" fill="#6e6e6e"/>
<rect x="256" y="177" width="62" height="8" fill="#6e6e6e"/>
<rect x="318" y="177" width="55" height="8" fill="#6e6e6e"/>
<rect x="373" y="179" width="64" height="4" fill="#a6a6a6"/>
<rect x="437" y="179" width="38" height="4" fill="#a6a6a6"/>
<rect x="475" y="179" width="37" height="4" fill="#a6a6a6"/>
<rect x="0" y="239" width="50" height="12" fill="#2b2b2b"/>
<rect x="50" y="239" width="30" height="12" fill="#2b2b2b"/>
<rect x="80" y="239" width="38" height="12" fill="#2b2b2b"/>
<rect x="118" y="239" width="33" height="12" fill="#2b2b2b"/>
<rect x="151" y="239" width="30" height="12" fill="#2b2b2b"/>
<rect x="181" y="239" width="28" height="12" fill="#2b2b2b"/>
<rect x="209" y="239" width="47" height="12" fill="#2b2b2b"/>
<rect x="256" y="239" width="28" height="12" fill="#2b2b2b"/>
<rect x="284" y="239" width="34" height="12" fill="#2b2b2b"/>
<rect x="318" y="239" width="55" height="12" fill="#2b2b2b"/>
<rect x="373" y="243" width="64" height="4" fill="#a6a6a6"/>
<rect x="437" y="243" width="75" height="4" fill="#a6a6a6"/>
<rect x="80" y="295" width="38" height="4" fill="#a6a6a6"/>
<rect x="118" y="295" width="63" height="4" fill="#a6a6a6"/>
<rect x="181" y="293" width="28" height="8" fill="#6e6e6e"/>
<rect x="209" y="293" width="47" height="8" fill="#6e6e6e"/>
<rect x="256" y="293" width="28" height="8" fill="#6e6e6e"/>
<rect x="284" y="293" width="34" height="8" fill="#6e6e6e"/>
<rect x="318" y="293" width="55" height="8" fill="#6e6e6e"/>
<rect x="373" y="295" width="64" height="4" fill="#a6a6a6"/>
<rect x="437" y="295" width="75" height="4" fill="#a6a6a6"/>
<rect x="256" y="323" width="24" height="8" fill="#6e6e6e"/>
<rect x="280" y="323" width="38" height="8" fill="#6e6e6e"/>
<rect x="318" y="323" width="55" height="8" fill="#6e6e6e"/>
<rect x="373" y="325" width="64" height="4" fill="#a6a6a6"/>
<rect x="437" y="325" width="75" height="4" fill="#a6a6a6"/>
<rect x="0" y="330" width="80" height="4" fill="#a6a6a6"/>
<rect x="80" y="359" width="38" height="4" fill="#a6a6a6"/>
<rect x="118" y="359" width="63" height="4" fill="#a6a6a6"/>
<rect x="181" y="357" width="28" height="8" fill="#6e6e6e"/>
<rect x="209" y="357" width="47" height="8" fill="#6e6e6e"/>
<rect x="256" y="357" width="24" height="8" fill="#6e6e6e"/>
<rect x="280" y="357" width="38" height="8" fill="#6e6e6e"/>
<rect x="318" y="357" width="55" height="8" fill="#6e6e6e"/>
<rect x="0" y="394" width="80" height="12" fill="#2b2b2b"/>
<rect x="80" y="394" width="41" height="12" fill="#2b2b2b"/>
<rect x="121" y="394" width="60" height="12" fill="#2b2b2b"/>
<rect x="181" y="394" width="28" height="12" fill="#2b2b2b"/>
<rect x="209" y="394" width="47" height="12" fill="#2b2b2b"/>
<rect x="256" y="394" width="62" height="12" fill="#2b2b2b"/>
<rect x="318" y="394" width="55" height="12" fill="#2b2b2b"/>
<rect x="373" y="394" width="33" height="12" fill="#2b2b2b"/>
<rect x="406" y="394" width="31" height="12" fill="#2b2b2b"/>
<rect x="437" y="394" width="31" height="12" fill="#2b2b2b"/>
<rect x="468" y="394" width="44" height="12" fill="#2b2b2b"/>
<rect x="121" y="448" width="60" height="4" fill="#a6a6a6"/>
<rect x="209" y="459" width="47" height="4" fill="#a6a6a6"/>
<rect x="256" y="459" width="62" height="4" fill="#a6a6a6"/>
<rect x="318" y="459" width="55" height="4" fill="#a6a6a6"/>
<rect x="373" y="459" width="33" height="4" fill="#a6a6a6"/>
<rect x="406" y="459" width="31" height="4" fill="#a6a6a6"/>
<rect x="437" y="459" width="31" height="4" fill="#a6a6a6"/>
<rect x="292" y="301" width="40" height="22" fill="none" stroke="#d81b60" stroke-width="1"/>
<text x="292" y="299" font-family="sans-serif" font-size="6" fill="#d81b60">core</text>
<rect x="0" y="490" width="40" height="22" fill="none" stroke="#1e88e5" stroke-width="1"/>
<text x="0" y="488" font-family="sans-serif" font-size="6" fill="#1e88e5">periphery</text>
<polyline points="181,0 181,39 181,122 209,122 209,181 256,181 318,181 318,109 373,109 437,109 437,26" fill="none" stroke="#ff8f00" stroke-width="2.5"/>
<polyline points="181,0 181,26 437,26" fill="none" stroke="#ff8f00" stroke-width="1.5" stroke-dasharray="6 4"/>
<circle cx="181" cy="0" r="5" fill="none" stroke="#ff8f00" stroke-width="1.5"/>
<circle cx="437" cy="26" r="5" fill="none" stroke="#ff8f00" stroke-width="1.5"/>
<rect x="8" y="524" width="16" height="16" fill="#bfe3bf"/>
<text x="28" y="536" font-family="sans-serif" font-size="12" fill="#111">residential</text>
<rect x="148" y="524" width="16" height="16" fill="#bcd9f7"/>
<text x="168" y="536" font-family="sans-serif" font-size="12" fill="#111">commercial</text>
<rect x="288" y="524" width="16" height="16" fill="#f2cf9e"/>
<text x="308" y="536" font-family="sans-serif" font-size="12" fill="#111">industrial</text>
<rect x="428" y="524" width="16" height="16" fill="#ddc2ef"/>
<text x="448" y="536" font-family="sans-serif" font-size="12" fill="#111">institutional</text>
<rect x="8" y="552" width="16" height="16" fill="#2b2b2b"/>
<text x="28" y="564" font-family="sans-serif" font-size="12" fill="#111">arterial</text>
<rect x="118" y="552" width="16" height="16" fill="#6e6e6e"/>
<text x="138" y="564" font-family="sans-serif" font-size="12" fill="#111">street</text>
<rect x="228" y="552" width="16" height="16" fill="#a6a6a6"/>
<text x="248" y="564" font-family="sans-serif" font-size="12" fill="#111">lane</text>
<line x1="8" y1="588" x2="32" y2="588" stroke="#ff8f00" stroke-width="2.5"/>
<text x="38" y="592" font-family="sans-serif" font-size="11" fill="#111">shortest street route</text>
<line x1="200" y1="588" x2="224" y2="588" stroke="#ff8f00" stroke-width="1.5" stroke-dasharray="6 4"/>
<text x="230" y="592" font-family="sans-serif" font-size="11" fill="#111">Manhattan L</text>
<text x="8" y="616" font-family="sans-serif" font-size="12" fill="#111">worst pair (181, 0)-(437, 26): excess 310 cells (network 592, Manhattan 282)</text>
</svg>
