<svg xmlns="http://www.w3.org/2000/svg" width="528" height="640" viewBox="-8 -8 528 640">
<rect x="-8" y="-8" width="528" height="640" fill="#ffffff"/>
<rect x="0" y="0" width="48" height="23" fill="#bfe3bf" fill-opacity="0.55"/>
<rect x="56" y="0" width="44" height="60" fill="#bfe3bf" fill-opacity="0.55"/>
<rect x="112" y="0" width="45" height="60" fill="#bfe3bf" fill-opacity="0.55"/>
<rect x="165" y="0" width="68" height="58" fill="#ddc2ef" fill-opacity="0.55"/>
<rect x="241" y="0" width="41" height="22" fill="#ddc2ef" fill-opacity="0.55"/>
<rect x="290" y="0" width="38" height="60" fill="#bfe3bf" fill-opacity="0.55"/>
<rect x="332" y="0" width="30" height="58" fill="#bfe3bf" fill-opacity="0.55"/>
<rect x="366" y="0" width="41" height="58" fill="#ddc2ef" fill-opacity="0.55"/>
<rect x="419" y="0" width="53" height="58" fill="#bfe3bf" fill-opacity="0.55"/>
<rect x="476" y="0" width="36" height="58" fill="#bfe3bf" fill-opacity="0.55"/>
<rect x="0" y="27" width="48" height="73" fill="#bfe3bf" fill-opacity="0.55"/>
<rect x="241" y="30" width="41" height="28" fill="#ddc2ef" fill-opacity="0.55"/>
<rect x="56" y="64" width="44" height="36" fill="#bfe3bf" fill-opacity="0.55"/>
<rect x="112" y="64" width="45" height="36" fill="#bfe3bf" fill-opacity="0.55"/>
<rect x="290" y="64" width="38" height="36" fill="#bcd9f7" fill-opacity="0.55"/>
<rect x="165" y="66" width="24" height="34" fill="#bcd9f7" fill-opacity="0.55"/>
<rect x="197" y="66" width="36" height="34" fill="#bcd9f7" fill-opacity="0.55"/>
<rect x="241" y="66" width="41" height="34" fill="#bcd9f7" fill-opacity="0.55"/>
<rect x="332" y="66" width="28" height="34" fill="#bcd9f7" fill-opacity="0.55"/>
<rect x="368" y="66" width="39" height="34" fill="#bcd9f7" fill-opacity="0.55"/>
<rect x="419" y="66" width="53" height="34" fill="#bfe3bf" fill-opacity="0.55"/>
<rect x="476" y="66" width="36" height="34" fill="#bfe3bf" fill-opacity="0.55"/>
<rect x="0" y="112" width="50" height="40" fill="#bfe3bf" fill-opacity="0.55"/>
<rect x="54" y="112" width="46" height="40" fill="#bfe3bf" fill-opacity="0.55"/>
<rect x="112" y="112" width="45" height="38" fill="#bfe3bf" fill-opacity="0.55"/>
<rect x="165" y="112" width="24" height="38" fill="#bcd9f7" fill-opacity="0.55"/>
<rect x="197" y="112" width="36" height="38" fill="#bcd9f7" fill-opacity="0.55"/>
<rect x="241" y="112" width="41" height="38" fill="#bcd9f7" fill-opacity="0.55"/>
<rect x="290" y="112" width="36" height="38" fill="#bcd9f7" fill-opacity="0.55"/>
<rect x="334" y="112" width="26" height="38" fill="#bcd9f7" fill-opacity="0.55"/>
<rect x="368" y="112" width="41" height="38" fill="#bcd9f7" fill-opacity="0.55"/>
<rect x="417" y="112" width="55" height="40" fill="#bfe3bf" fill-opacity="0.55"/>
<rect x="476" y="112" width="36" height="40" fill="#bfe3bf" fill-opacity="0.55"/>
<rect x="0" y="156" width="50" height="46" fill="#bfe3bf" fill-opacity="0.55"/>
<rect x="54" y="156" width="46" height="46" fill="#bfe3bf" fill-opacity="0.55"/>
<rect x="417" y="156" width="55" height="46" fill="#bfe3bf" fill-opacity="0.55"/>
<rect x="476" y="156" width="36" height="46" fill="#bfe3bf" fill-opacity="0.55"/>
<rect x="112" y="158" width="47" height="44" fill="#bfe3bf" fill-opacity="0.55"/>
<rect x="163" y="158" width="26" height="44" fill="#bfe3bf" fill-opacity="0.55"/>
<rect x="197" y="158" width="36" height="44" fill="#bcd9f7" fill-opacity="0.55"/>
<rect x="241" y="158" width="41" height="44" fill="#bcd9f7" fill-opacity="0.55"/>
<rect x="290" y="158" width="36" height="44" fill="#bcd9f7" fill-opacity="0.55"/>
<rect x="334" y="158" width="26" height="44" fill="#bcd9f7" fill-opacity="0.55"/>
<rect x="368" y="158" width="41" height="44" fill="#bcd9f7" fill-opacity="0.55"/>
<rect x="0" y="206" width="50" height="63" fill="#bfe3bf" fill-opacity="0.55"/>
<rect x="54" y="206" width="46" height="63" fill="#bfe3bf" fill-opacity="0.55"/>
<rect x="112" y="206" width="47" height="37" fill="#ddc2ef" fill-opacity="0.55"/>
<rect x="163" y="206" width="70" height="37" fill="#bfe3bf" fill-opacity="0.55"/>
<rect x="241" y="206" width="41" height="35" fill="#bcd9f7" fill-opacity="0.55"/>
<rect x="290" y="206" width="38" height="35" fill="#bcd9f7" fill-opacity="0.55"/>
<rect x="332" y="206" width="180" height="110" fill="#bfe3bf" fill-opacity="0.55"/>
<rect x="112" y="247" width="47" height="63" fill="#bfe3bf" fill-opacity="0.55"/>
<rect x="163" y="247" width="37" height="63" fill="#bfe3bf" fill-opacity="0.55"/>
<rect x="204" y="247" width="29" height="24" fill="#bcd9f7" fill-opacity="0.55"/>
<rect x="241" y="249" width="41" height="22" fill="#bcd9f7" fill-opacity="0.55"/>
<rect x="290" y="249" width="38" height="22" fill="#bfe3bf" fill-opacity="0.55"/>
<rect x="204" y="275" width="29" height="35" fill="#bfe3bf" fill-opacity="0.55"/>
<rect x="241" y="275" width="87" height="115" fill="#bfe3bf" fill-opacity="0.55"/>
<rect x="0" y="277" width="50" height="66" fill="#bfe3bf" fill-opacity="0.55"/>
<rect x="54" y="277" width="46" height="66" fill="#bfe3bf" fill-opacity="0.55"/>
<rect x="112" y="314" width="47" height="29" fill="#bfe3bf" fill-opacity="0.55"/>
<rect x="163" y="314" width="70" height="29" fill="#bfe3bf" fill-opacity="0.55"/>
<rect x="332" y="320" width="180" height="70" fill="#f2cf9e" fill-opacity="0.55"/>
<rect x="0" y="347" width="50" height="45" fill="#bfe3bf" fill-opacity="0.55"/>
<rect x="54" y="347" width="46" height="45" fill="#bfe3bf" fill-opacity="0.55"/>
<rect x="112" y="347" width="47" height="115" fill="#bfe3bf" fill-opacity="0.55"/>
<rect x="163" y="347" width="70" height="115" fill="#bfe3bf" fill-opacity="0.55"/>
<rect x="241" y="394" width="87" height="68" fill="#ddc2ef" fill-opacity="0.55"/>
<rect x="332" y="394" width="106" height="38" fill="#f2cf9e" fill-opacity="0.55"/>
<rect x="442" y="394" width="70" height="76" fill="#f2cf9e" fill-opacity="0.55"/>
<rect x="0" y="396" width="50" height="66" fill="#bfe3bf" fill-opacity="0.55"/>
<rect x="54" y="396" width="46" height="66" fill="#bfe3bf" fill-opacity="0.55"/>
<rect x="332" y="436" width="38" height="76" fill="#bfe3bf" fill-opacity="0.55"/>
<rect x="374" y="436" width="64" height="76" fill="#ddc2ef" fill-opacity="0.55"/>
<rect x="0" y="466" width="100" height="46" fill="#bfe3bf" fill-opacity="0.55"/>
<rect x="112" y="466" width="83" height="46" fill="#bfe3bf" fill-opacity="0.55"/>
<rect x="199" y="466" width="34" height="46" fill="#bfe3bf" fill-opacity="0.55"/>
<rect x="241" y="466" width="44" height="46" fill="#ddc2ef" fill-opacity="0.55"/>
<rect x="289" y="466" width="39" height="46" fill="#bfe3bf" fill-opacity="0.55"/>
<rect x="442" y="474" width="70" height="38" fill="#bfe3bf" fill-opacity="0.55"/>
<rect x="48" y="0" width="8" height="25" fill="#6e6e6e"/>
<rect x="48" y="25" width="8" height="37" fill="#6e6e6e"/>
<rect x="48" y="62" width="8" height="44" fill="#6e6e6e"/>
<rect x="50" y="106" width="4" height="48" fill="#a6a6a6"/>
<rect x="50" y="154" width="4" height="50" fill="#a6a6a6"/>
<rect x="50" y="204" width="4" height="69" fill="#a6a6a6"/>
<rect x="50" y="273" width="4" height="72" fill="#a6a6a6"/>
<rect x="50" y="345" width="4" height="49" fill="#a6a6a6"/>
<rect x="50" y="394" width="4" height="70" fill="#a6a6a6"/>
<rect x="100" y="0" width="12" height="62" fill="#2b2b2b"/>
<rect x="100" y="62" width="12" height="44" fill="#2b2b2b"/>
<rect x="100" y="106" width="12" height="48" fill="#2b2b2b"/>
<rect x="100" y="154" width="12" height="50" fill="#2b2b2b"/>
<rect x="100" y="204" width="12" height="41" fill="#2b2b2b"/>
<rect x="100" y="245" width="12" height="28" fill="#2b2b2b"/>
<rect x="100" y="273" width="12" height="39" fill="#2b2b2b"/>
<rect x="100" y="312" width="12" height="33" fill="#2b2b2b"/>
<rect x="100" y="345" width="12" height="49" fill="#2b2b2b"/>
<rect x="100" y="394" width="12" height="70" fill="#2b2b2b"/>
<rect x="100" y="464" width="12" height="48" fill="#2b2b2b"/>
<rect x="157" y="0" width="8" height="62" fill="#6e6e6e"/>
<rect x="157" y="62" width="8" height="44" fill="#6e6e6e"/>
<rect x="157" y="106" width="8" height="48" fill="#6e6e6e"/>
<rect x="159" y="154" width="4" height="50" fill="#a6a6a6"/>
<rect x="159" y="204" width="4" height="41" fill="#a6a6a6"/>
<rect x="159" y="245" width="4" height="67" fill="#a6a6a6"/>
<rect x="159" y="312" width="4" height="33" fill="#a6a6a6"/>
<rect x="159" y="345" width="4" height="119" fill="#a6a6a6"/>
<rect x="189" y="62" width="8" height="44" fill="#6e6e6e"/>
<rect x="189" y="106" width="8" height="48" fill="#6e6e6e"/>
<rect x="189" y="154" width="8" height="50" fill="#6e6e6e"/>
<rect x="195" y="464" width="4" height="48" fill="#a6a6a6"/>
<rect x="200" y="245" width="4" height="28" fill="#a6a6a6"/>
<rect x="200" y="273" width="4" height="39" fill="#a6a6a6"/>
<rect x="233" y="0" width="8" height="26" fill="#6e6e6e"/>
<rect x="233" y="26" width="8" height="36" fill="#6e6e6e"/>
<rect x="233" y="62" width="8" height="44" fill="#6e6e6e"/>
<rect x="233" y="106" width="8" height="48" fill="#6e6e6e"/>
<rect x="233" y="154" width="8" height="50" fill="#6e6e6e"/>
<rect x="233" y="204" width="8" height="41" fill="#6e6e6e"/>
<rect x="233" y="245" width="8" height="28" fill="#6e6e6e"/>
<rect x="233" y="273" width="8" height="39" fill="#6e6e6e"/>
<rect x="233" y="312" width="8" height="33" fill="#6e6e6e"/>
<rect x="233" y="345" width="8" height="47" fill="#6e6e6e"/>
<rect x="233" y="392" width="8" height="72" fill="#6e6e6e"/>
<rect x="233" y="464" width="8" height="48" fill="#6e6e6e"/>
<rect x="282" y="0" width="8" height="26" fill="#6e6e6e"/>
<rect x="282" y="26" width="8" height="36" fill="#6e6e6e"/>
<rect x="282" y="62" width="8" height="44" fill="#6e6e6e"/>
<rect x="282" y="106" width="8" height="48" fill="#6e6e6e"/>
<rect x="282" y="154" width="8" height="50" fill="#6e6e6e"/>
<rect x="282" y="204" width="8" height="41" fill="#6e6e6e"/>
<rect x="282" y="245" width="8" height="28" fill="#6e6e6e"/>
<rect x="285" y="464" width="4" height="48" fill="#a6a6a6"/>
<rect x="328" y="0" width="4" height="62" fill="#a6a6a6"/>
<rect x="328" y="62" width="4" height="44" fill="#a6a6a6"/>
<rect x="326" y="106" width="8" height="48" fill="#6e6e6e"/>
<rect x="326" y="154" width="8" height="50" fill="#6e6e6e"/>
<rect x="328" y="204" width="4" height="41" fill="#a6a6a6"/>
<rect x="328" y="245" width="4" height="28" fill="#a6a6a6"/>
<rect x="328" y="273" width="4" height="45" fill="#a6a6a6"/>
<rect x="328" y="318" width="4" height="74" fill="#a6a6a6"/>
<rect x="328" y="392" width="4" height="42" fill="#a6a6a6"/>
<rect x="328" y="434" width="4" height="30" fill="#a6a6a6"/>
<rect x="328" y="464" width="4" height="48" fill="#a6a6a6"/>
<rect x="362" y="0" width="4" height="62" fill="#a6a6a6"/>
<rect x="360" y="62" width="8" height="44" fill="#6e6e6e"/>
<rect x="360" y="106" width="8" height="48" fill="#6e6e6e"/>
<rect x="360" y="154" width="8" height="50" fill="#6e6e6e"/>
<rect x="370" y="434" width="4" height="78" fill="#a6a6a6"/>
<rect x="407" y="0" width="12" height="62" fill="#2b2b2b"/>
<rect x="407" y="62" width="12" height="44" fill="#2b2b2b"/>
<rect x="409" y="106" width="8" height="48" fill="#6e6e6e"/>
<rect x="409" y="154" width="8" height="50" fill="#6e6e6e"/>
<rect x="438" y="392" width="4" height="42" fill="#a6a6a6"/>
<rect x="438" y="434" width="4" height="38" fill="#a6a6a6"/>
<rect x="438" y="472" width="4" height="40" fill="#a6a6a6"/>
<rect x="472" y="0" width="4" height="62" fill="#a6a6a6"/>
<rect x="472" y="62" width="4" height="44" fill="#a6a6a6"/>
<rect x="472" y="106" width="4" height="48" fill="#a6a6a6"/>
<rect x="472" y="154" width="4" height="50" fill="#a6a6a6"/>
<rect x="0" y="23" width="52" height="4" fill="#a6a6a6"/>
<rect x="237" y="22" width="49" height="8" fill="#6e6e6e"/>
<rect x="52" y="60" width="54" height="4" fill="#a6a6a6"/>
<rect x="106" y="60" width="55" height="4" fill="#a6a6a6"/>
<rect x="161" y="58" width="32" height="8" fill="#6e6e6e"/>
<rect x="193" y="58" width="44" height="8" fill="#6e6e6e"/>
<rect x="237" y="58" width="49" height="8" fill="#6e6e6e"/>
<rect x="286" y="60" width="44" height="4" fill="#a6a6a6"/>
<rect x="330" y="58" width="34" height="8" fill="#6e6e6e"/>
<rect x="364" y="58" width="49" height="8" fill="#6e6e6e"/>
<rect x="413" y="58" width="61" height="8" fill="#6e6e6e"/>
<rect x="474" y="58" width="38" height="8" fill="#6e6e6e"/>
<rect x="0" y="100" width="52" height="12" fill="#2b2b2b"/>
<rect x="52" y="100" width="54" height="12" fill="#2b2b2b"/>
<rect x="106" y="100" width="55" height="12" fill="#2b2b2b"/>
<rect x="161" y="100" width="32" height="12" fill="#2b2b2b"/>
<rect x="193" y="100" width="44" height="12" fill="#2b2b2b"/>
<rect x="237" y="100" width="49" height="12" fill="#2b2b2b"/>
<rect x="286" y="100" width="44" height="12" fill="#2b2b2b"/>
<rect x="330" y="100" width="34" height="12" fill="#2b2b2b"/>
<rect x="364" y="100" width="49" height="12" fill="#2b2b2b"/>
<rect x="413" y="100" width="61" height="12" fill="#2b2b2b"/>
<rect x="474" y="100" width="38" height="12" fill="#2b2b2b"/>
<rect x="0" y="152" width="52" height="4" fill="#a6a6a6"/>
<rect x="52" y="152" width="54" height="4" fill="#a6a6a6"/>
<rect x="106" y="150" width="55" height="8" fill="#6e6e6e"/>
<rect x="161" y="150" width="32" height="8" fill="#6e6e6e"/>
<rect x="193" y="150" width="44" height="8" fill="#6e6e6e"/>
<rect x="237" y="150" width="49" height="8" fill="#6e6e6e"/>
<rect x="286" y="150" width="44" height="8" fill="#6e6e6e"/>
<rect x="330" y="150" width="34" height="8" fill="#6e6e6e"/>
<rect x="364" y="150" width="49" height="8" fill="#6e6e6e"/>
<rect x="413" y="152" width="61" height="4" fill="#a6a6a6"/>
<rect x="474" y="152" width="38" height="4" fill="#a6a6a6"/>
<rect x="0" y="202" width="52" height="4" fill="#a6a6a6"/>
<rect x="52" y="202" width="54" height="4" fill="#a6a6a6"/>
<rect x="106" y="202" width="55" height="4" fill="#a6a6a6"/>
<rect x="161" y="202" width="32" height="4" fill="#a6a6a6"/>
<rect x="193" y="202" width="44" height="4" fill="#a6a6a6"/>
<rect x="237" y="202" width="49" height="4" fill="#a6a6a6"/>
<rect x="286" y="202" width="44" height="4" fill="#a6a6a6"/>
<rect x="330" y="202" width="34" height="4" fill="#a6a6a6"/>
<rect x="364" y="202" width="49" height="4" fill="#a6a6a6"/>
<rect x="413" y="202" width="61" height="4" fill="#a6a6a6"/>
<rect x="474" y="202" width="38" height="4" fill="#a6a6a6"/>
<rect x="106" y="243" width="55" height="4" fill="#a6a6a6"/>
<rect x="161" y="243" width="41" height="4" fill="#a6a6a6"/>
<rect x="202" y="243" width="35" height="4" fill="#a6a6a6"/>
<rect x="237" y="241" width="49" height="8" fill="#6e6e6e"/>
<rect x="286" y="241" width="44" height="8" fill="#6e6e6e"/>
<rect x="0" y="269" width="52" height="8" fill="#6e6e6e"/>
<rect x="52" y="269" width="54" height="8" fill="#6e6e6e"/>
<rect x="202" y="271" width="35" height="4" fill="#a6a6a6"/>
<rect x="237" y="271" width="49" height="4" fill="#a6a6a6"/>
<rect x="286" y="271" width="44" height="4" fill="#a6a6a6"/>
<rect x="106" y="310" width="55" height="4" fill="#a6a6a6"/>
<rect x="161" y="310" width="41" height="4" fill="#a6a6a6"/>
<rect x="202" y="310" width="35" height="4" fill="#a6a6a6"/>
<rect x="330" y="316" width="182" height="4" fill="#a6a6a6"/>
<rect x="0" y="343" width="52" height="4" fill="#a6a6a6"/>
<rect x="52" y="343" width="54" height="4" fill="#a6a6a6"/>
<rect x="106" y="343" width="55" height="4" fill="#a6a6a6"/>
<rect x="161" y="343" width="76" height="4" fill="#a6a6a6"/>
<rect x="237" y="390" width="93" height="4" fill="#a6a6a6"/>
<rect x="330" y="390" width="110" height="4" fill="#a6a6a6"/>
<rect x="440" y="390" width="72" height="4" fill="#a6a6a6"/>
<rect x="0" y="392" width="52" height="4" fill="#a6a6a6"/>
<rect x="52" y="392" width="54" height="4" fill="#a6a6a6"/>
<rect x="330" y="432" width="42" height="4" fill="#a6a6a6"/>
<rect x="372" y="432" width="68" height="4" fill="#a6a6a6"/>
<rect x="0" y="462" width="52" height="4" fill="#a6a6a6"/>
<rect x="52" y="462" width="54" height="4" fill="#a6a6a6"/>
<rect x="106" y="462" width="55" height="4" fill="#a6a6a6"/>
<rect x="161" y="462" width="36" height="4" fill="#a6a6a6"/>
<rect x="197" y="462" width="40" height="4" fill="#a6a6a6"/>
<rect x="237" y="462" width="50" height="4" fill="#a6a6a6"/>
<rect x="287" y="462" width="43" height="4" fill="#a6a6a6"/>
<rect x="440" y="470" width="72" height="4" fill="#a6a6a6"/>
<rect x="260" y="173" width="40" height="22" fill="none" stroke="#d81b60" stroke-width="1"/>
<text x="260" y="171" font-family="sans-serif" font-size="6" fill="#d81b60">core</text>
<rect x="472" y="490" width="40" height="22" fill="none" stroke="#1e88e5" stroke-width="1"/>
<text x="472" y="488" font-family="sans-serif" font-size="6" fill="#1e88e5">periphery</text>
<polyline points="474,204 413,204 364,204 330,204 330,245 330,273 330,318 330,392 330,434 372,434 440,434 440,472 512,472" fill="none" stroke="#ff8f00" stroke-width="2.5"/>
<polyline points="474,204 474,472 512,472" fill="none" stroke="#ff8f00" stroke-width="1.5" stroke-dasharray="6 4"/>
<circle cx="474" cy="204" r="5" fill="none" stroke="#ff8f00" stroke-width="1.5"/>
<circle cx="512" cy="472" r="5" fill="none" stroke="#ff8f00" stroke-width="1.5"/>
<rect x="8" y="524" width="16" height="16" fill="#bfe3bf"/>
<text x="28" y="536" font-family="sans-serif" font-size="12" fill="#111">residential</text>
<rect x="148" y="524" width="16" height="16" fill="#bcd9f7"/>
<text x="168" y="536" font-family="sans-serif" font-size="12" fill="#111">commercial</text>
<rect x="288" y="524" width="16" height="16" fill="#f2cf9e"/>
<text x="308" y="536" font-family="sans-serif" font-size="12" fill="#111">industrial</text>
<rect x="428" y="524" width="16" height="16" fill="#ddc2ef"/>
<text x="448" y="536" font-family="sans-serif" font-size="12" fill="#111">institutional</text>
<rect x="8" y="552" width="16" height="16" fill="#2b2b2b"/>
<text x="28" y="564" font-family="sans-serif" font-size="12" fill="#111">arterial</text>
<rect x="118" y="552" width="16" height="16" fill="#6e6e6e"/>
<text x="138" y="564" font-family="sans-serif" font-size="12" fill="#111">street</text>
<rect x="228" y="552" width="16" height="16" fill="#a6a6a6"/>
<text x="248" y="564" font-family="sans-serif" font-size="12" fill="#111">lane</text>
<line x1="8" y1="588" x2="32" y2="588" stroke="#ff8f00" stroke-width="2.5"/>
<text x="38" y="592" font-family="sans-serif" font-size="11" fill="#111">shortest street route</text>
<line x1="200" y1="588" x2="224" y2="588" stroke="#ff8f00" stroke-width="1.5" stroke-dasharray="6 4"/>
<text x="230" y="592" font-family="sans-serif" font-size="11" fill="#111">Manhattan L</text>
<text x="8" y="616" font-family="sans-serif" font-size="12" fill="#111">worst pair (474, 204)-(512, 472): excess 288 cells (network 594, Manhattan 306)</text>
</svg>
