<svg xmlns="http://www.w3.org/2000/svg" width="528" height="640" viewBox="-8 -8 528 640">
<rect x="-8" y="-8" width="528" height="640" fill="#ffffff"/>
<rect x="0" y="0" width="76" height="78" fill="#bfe3bf" fill-opacity="0.55"/>
<rect x="80" y="0" width="57" height="20" fill="#ddc2ef" fill-opacity="0.55"/>
<rect x="141" y="0" width="24" height="48" fill="#ddc2ef" fill-opacity="0.55"/>
<rect x="169" y="0" width="44" height="20" fill="#ddc2ef" fill-opacity="0.55"/>
<rect x="225" y="0" width="21" height="20" fill="#bfe3bf" fill-opacity="0.55"/>
<rect x="258" y="0" width="68" height="80" fill="#bfe3bf" fill-opacity="0.55"/>
<rect x="330" y="0" width="40" height="21" fill="#bfe3bf" fill-opacity="0.55"/>
<rect x="374" y="0" width="26" height="21" fill="#ddc2ef" fill-opacity="0.55"/>
<rect x="404" y="0" width="34" height="21" fill="#bfe3bf" fill-opacity="0.55"/>
<rect x="442" y="0" width="70" height="80" fill="#bfe3bf" fill-opacity="0.55"/>
<rect x="80" y="24" width="26" height="24" fill="#ddc2ef" fill-opacity="0.55"/>
<rect x="110" y="24" width="27" height="24" fill="#ddc2ef" fill-opacity="0.55"/>
<rect x="169" y="24" width="24" height="24" fill="#ddc2ef" fill-opacity="0.55"/>
<rect x="197" y="24" width="16" height="24" fill="#bfe3bf" fill-opacity="0.55"/>
<rect x="225" y="24" width="21" height="56" fill="#bfe3bf" fill-opacity="0.55"/>
<rect x="330" y="25" width="40" height="24" fill="#bfe3bf" fill-opacity="0.55"/>
<rect x="374" y="25" width="26" height="55" fill="#ddc2ef" fill-opacity="0.55"/>
<rect x="404" y="25" width="34" height="27" fill="#bfe3bf" fill-opacity="0.55"/>
<rect x="80" y="52" width="26" height="26" fill="#bfe3bf" fill-opacity="0.55"/>
<rect x="110" y="52" width="27" height="26" fill="#bfe3bf" fill-opacity="0.55"/>
<rect x="141" y="52" width="72" height="26" fill="#bfe3bf" fill-opacity="0.55"/>
<rect x="330" y="53" width="40" height="27" fill="#bfe3bf" fill-opacity="0.55"/>
<rect x="404" y="56" width="34" height="24" fill="#bfe3bf" fill-opacity="0.55"/>
<rect x="225" y="84" width="21" height="26" fill="#bfe3bf" fill-opacity="0.55"/>
<rect x="258" y="84" width="68" height="52" fill="#bfe3bf" fill-opacity="0.55"/>
<rect x="330" y="84" width="40" height="24" fill="#bfe3bf" fill-opacity="0.55"/>
<rect x="374" y="84" width="26" height="24" fill="#ddc2ef" fill-opacity="0.55"/>
<rect x="404" y="84" width="34" height="24" fill="#bfe3bf" fill-opacity="0.55"/>
<rect x="442" y="84" width="70" height="52" fill="#bfe3bf" fill-opacity="0.55"/>
<rect x="0" y="86" width="27" height="86" fill="#bfe3bf" fill-opacity="0.55"/>
<rect x="31" y="86" width="75" height="86" fill="#bfe3bf" fill-opacity="0.55"/>
<rect x="110" y="86" width="59" height="52" fill="#bfe3bf" fill-opacity="0.55"/>
<rect x="173" y="86" width="40" height="24" fill="#bfe3bf" fill-opacity="0.55"/>
<rect x="330" y="112" width="40" height="24" fill="#bfe3bf" fill-opacity="0.55"/>
<rect x="374" y="112" width="26" height="24" fill="#bfe3bf" fill-opacity="0.55"/>
<rect x="404" y="112" width="34" height="24" fill="#bfe3bf" fill-opacity="0.55"/>
<rect x="173" y="114" width="40" height="24" fill="#bfe3bf" fill-opacity="0.55"/>
<rect x="225" y="114" width="21" height="22" fill="#bfe3bf" fill-opacity="0.55"/>
<rect x="110" y="142" width="59" height="28" fill="#bfe3bf" fill-opacity="0.55"/>
<rect x="173" y="142" width="40" height="30" fill="#ddc2ef" fill-opacity="0.55"/>
<rect x="225" y="144" width="21" height="28" fill="#ddc2ef" fill-opacity="0.55"/>
<rect x="258" y="144" width="68" height="69" fill="#bfe3bf" fill-opacity="0.55"/>
<rect x="330" y="144" width="182" height="69" fill="#bfe3bf" fill-opacity="0.55"/>
<rect x="0" y="176" width="27" height="87" fill="#bfe3bf" fill-opacity="0.55"/>
<rect x="31" y="176" width="42" height="35" fill="#bfe3bf" fill-opacity="0.55"/>
<rect x="81" y="176" width="25" height="35" fill="#bcd9f7" fill-opacity="0.55"/>
<rect x="173" y="176" width="40" height="37" fill="#bfe3bf" fill-opacity="0.55"/>
<rect x="225" y="176" width="21" height="37" fill="#bfe3bf" fill-opacity="0.55"/>
<rect x="110" y="178" width="16" height="35" fill="#bcd9f7" fill-opacity="0.55"/>
<rect x="134" y="178" width="35" height="35" fill="#bfe3bf" fill-opacity="0.55"/>
<rect x="110" y="217" width="16" height="22" fill="#bcd9f7" fill-opacity="0.55"/>
<rect x="134" y="217" width="35" height="22" fill="#bfe3bf" fill-opacity="0.55"/>
<rect x="173" y="217" width="40" height="46" fill="#bfe3bf" fill-opacity="0.55"/>
<rect x="225" y="217" width="21" height="50" fill="#bfe3bf" fill-opacity="0.55"/>
<rect x="258" y="217" width="32" height="48" fill="#bfe3bf" fill-opacity="0.55"/>
<rect x="294" y="217" width="32" height="48" fill="#bfe3bf" fill-opacity="0.55"/>
<rect x="330" y="217" width="28" height="50" fill="#bfe3bf" fill-opacity="0.55"/>
<rect x="362" y="217" width="26" height="16" fill="#bfe3bf" fill-opacity="0.55"/>
<rect x="392" y="217" width="24" height="16" fill="#bfe3bf" fill-opacity="0.55"/>
<rect x="420" y="217" width="27" height="16" fill="#bfe3bf" fill-opacity="0.55"/>
<rect x="451" y="217" width="34" height="16" fill="#bfe3bf" fill-opacity="0.55"/>
<rect x="489" y="217" width="23" height="50" fill="#bfe3bf" fill-opacity="0.55"/>
<rect x="31" y="219" width="16" height="22" fill="#bfe3bf" fill-opacity="0.55"/>
<rect x="51" y="219" width="22" height="22" fill="#bfe3bf" fill-opacity="0.55"/>
<rect x="81" y="219" width="25" height="44" fill="#bcd9f7" fill-opacity="0.55"/>
<rect x="362" y="237" width="26" height="30" fill="#bfe3bf" fill-opacity="0.55"/>
<rect x="392" y="237" width="24" height="30" fill="#bfe3bf" fill-opacity="0.55"/>
<rect x="420" y="237" width="27" height="30" fill="#bfe3bf" fill-opacity="0.55"/>
<rect x="451" y="237" width="34" height="30" fill="#bfe3bf" fill-opacity="0.55"/>
<rect x="31" y="245" width="42" height="18" fill="#bfe3bf" fill-opacity="0.55"/>
<rect x="110" y="247" width="59" height="16" fill="#bcd9f7" fill-opacity="0.55"/>
<rect x="225" y="271" width="21" height="47" fill="#bcd9f7" fill-opacity="0.55"/>
<rect x="330" y="271" width="28" height="49" fill="#bcd9f7" fill-opacity="0.55"/>
<rect x="362" y="271" width="26" height="49" fill="#ddc2ef" fill-opacity="0.55"/>
<rect x="392" y="271" width="24" height="49" fill="#f2cf9e" fill-opacity="0.55"/>
<rect x="420" y="271" width="92" height="49" fill="#f2cf9e" fill-opacity="0.55"/>
<rect x="258" y="273" width="30" height="45" fill="#bcd9f7" fill-opacity="0.55"/>
<rect x="296" y="273" width="30" height="45" fill="#bcd9f7" fill-opacity="0.55"/>
<rect x="0" y="275" width="73" height="72" fill="#bfe3bf" fill-opacity="0.55"/>
<rect x="81" y="275" width="23" height="17" fill="#bfe3bf" fill-opacity="0.55"/>
<rect x="112" y="275" width="55" height="43" fill="#bcd9f7" fill-opacity="0.55"/>
<rect x="175" y="275" width="38" height="43" fill="#bcd9f7" fill-opacity="0.55"/>
<rect x="81" y="296" width="23" height="24" fill="#bfe3bf" fill-opacity="0.55"/>
<rect x="81" y="324" width="23" height="23" fill="#bfe3bf" fill-opacity="0.55"/>
<rect x="330" y="324" width="28" height="25" fill="#bcd9f7" fill-opacity="0.55"/>
<rect x="362" y="324" width="26" height="25" fill="#ddc2ef" fill-opacity="0.55"/>
<rect x="392" y="324" width="24" height="25" fill="#f2cf9e" fill-opacity="0.55"/>
<rect x="420" y="324" width="92" height="25" fill="#f2cf9e" fill-opacity="0.55"/>
<rect x="112" y="326" width="20" height="21" fill="#bfe3bf" fill-opacity="0.55"/>
<rect x="140" y="326" width="27" height="21" fill="#bcd9f7" fill-opacity="0.55"/>
<rect x="175" y="326" width="38" height="21" fill="#bcd9f7" fill-opacity="0.55"/>
<rect x="225" y="326" width="21" height="21" fill="#bcd9f7" fill-opacity="0.55"/>
<rect x="258" y="326" width="30" height="23" fill="#bcd9f7" fill-opacity="0.55"/>
<rect x="296" y="326" width="30" height="23" fill="#bcd9f7" fill-opacity="0.55"/>
<rect x="258" y="353" width="32" height="42" fill="#bcd9f7" fill-opacity="0.55"/>
<rect x="294" y="353" width="32" height="16" fill="#bcd9f7" fill-opacity="0.55"/>
<rect x="330" y="353" width="28" height="16" fill="#bcd9f7" fill-opacity="0.55"/>
<rect x="362" y="353" width="26" height="16" fill="#ddc2ef" fill-opacity="0.55"/>
<rect x="392" y="353" width="24" height="16" fill="#f2cf9e" fill-opacity="0.55"/>
<rect x="420" y="353" width="92" height="79" fill="#f2cf9e" fill-opacity="0.55"/>
<rect x="0" y="355" width="75" height="77" fill="#bfe3bf" fill-opacity="0.55"/>
<rect x="79" y="355" width="27" height="42" fill="#bfe3bf" fill-opacity="0.55"/>
<rect x="110" y="355" width="24" height="42" fill="#bfe3bf" fill-opacity="0.55"/>
<rect x="138" y="355" width="29" height="40" fill="#bcd9f7" fill-opacity="0.55"/>
<rect x="175" y="355" width="38" height="40" fill="#bcd9f7" fill-opacity="0.55"/>
<rect x="225" y="355" width="21" height="40" fill="#bcd9f7" fill-opacity="0.55"/>
<rect x="294" y="373" width="32" height="24" fill="#bfe3bf" fill-opacity="0.55"/>
<rect x="330" y="373" width="28" height="24" fill="#bfe3bf" fill-opacity="0.55"/>
<rect x="362" y="373" width="26" height="24" fill="#bfe3bf" fill-opacity="0.55"/>
<rect x="392" y="373" width="24" height="24" fill="#f2cf9e" fill-opacity="0.55"/>
<rect x="79" y="401" width="27" height="31" fill="#bfe3bf" fill-opacity="0.55"/>
<rect x="110" y="401" width="24" height="31" fill="#bfe3bf" fill-opacity="0.55"/>
<rect x="294" y="401" width="64" height="31" fill="#bfe3bf" fill-opacity="0.55"/>
<rect x="362" y="401" width="26" height="31" fill="#bfe3bf" fill-opacity="0.55"/>
<rect x="392" y="401" width="24" height="31" fill="#f2cf9e" fill-opacity="0.55"/>
<rect x="138" y="403" width="29" height="27" fill="#bcd9f7" fill-opacity="0.55"/>
<rect x="175" y="403" width="38" height="27" fill="#bcd9f7" fill-opacity="0.55"/>
<rect x="225" y="403" width="21" height="29" fill="#bcd9f7" fill-opacity="0.55"/>
<rect x="258" y="403" width="32" height="29" fill="#bcd9f7" fill-opacity="0.55"/>
<rect x="0" y="436" width="34" height="76" fill="#bfe3bf" fill-opacity="0.55"/>
<rect x="38" y="436" width="37" height="76" fill="#bfe3bf" fill-opacity="0.55"/>
<rect x="79" y="436" width="27" height="44" fill="#bfe3bf" fill-opacity="0.55"/>
<rect x="110" y="436" width="24" height="44" fill="#bfe3bf" fill-opacity="0.55"/>
<rect x="225" y="436" width="21" height="44" fill="#bfe3bf" fill-opacity="0.55"/>
<rect x="258" y="436" width="32" height="44" fill="#bfe3bf" fill-opacity="0.55"/>
<rect x="294" y="436" width="29" height="16" fill="#bfe3bf" fill-opacity="0.55"/>
<rect x="327" y="436" width="31" height="16" fill="#bfe3bf" fill-opacity="0.55"/>
<rect x="362" y="436" width="26" height="16" fill="#bfe3bf" fill-opacity="0.55"/>
<rect x="392" y="436" width="24" height="44" fill="#f2cf9e" fill-opacity="0.55"/>
<rect x="420" y="436" width="26" height="76" fill="#f2cf9e" fill-opacity="0.55"/>
<rect x="450" y="436" width="62" height="76" fill="#f2cf9e" fill-opacity="0.55"/>
<rect x="138" y="438" width="29" height="40" fill="#bcd9f7" fill-opacity="0.55"/>
<rect x="175" y="438" width="38" height="40" fill="#bcd9f7" fill-opacity="0.55"/>
<rect x="294" y="456" width="29" height="24" fill="#f2cf9e" fill-opacity="0.55"/>
<rect x="327" y="456" width="31" height="24" fill="#f2cf9e" fill-opacity="0.55"/>
<rect x="362" y="456" width="26" height="24" fill="#f2cf9e" fill-opacity="0.55"/>
<rect x="79" y="484" width="55" height="28" fill="#bfe3bf" fill-opacity="0.55"/>
<rect x="225" y="484" width="21" height="28" fill="#bfe3bf" fill-opacity="0.55"/>
<rect x="258" y="484" width="32" height="28" fill="#bfe3bf" fill-opacity="0.55"/>
<rect x="294" y="484" width="64" height="28" fill="#f2cf9e" fill-opacity="0.55"/>
<rect x="362" y="484" width="54" height="28" fill="#f2cf9e" fill-opacity="0.55"/>
<rect x="138" y="486" width="75" height="26" fill="#bfe3bf" fill-opacity="0.55"/>
<rect x="27" y="82" width="4" height="92" fill="#a6a6a6"/>
<rect x="27" y="174" width="4" height="41" fill="#a6a6a6"/>
<rect x="27" y="215" width="4" height="28" fill="#a6a6a6"/>
<rect x="27" y="243" width="4" height="26" fill="#a6a6a6"/>
<rect x="34" y="434" width="4" height="78" fill="#a6a6a6"/>
<rect x="47" y="215" width="4" height="28" fill="#a6a6a6"/>
<rect x="73" y="174" width="8" height="41" fill="#6e6e6e"/>
<rect x="73" y="215" width="8" height="28" fill="#6e6e6e"/>
<rect x="73" y="243" width="8" height="26" fill="#6e6e6e"/>
<rect x="73" y="269" width="8" height="25" fill="#6e6e6e"/>
<rect x="73" y="294" width="8" height="28" fill="#6e6e6e"/>
<rect x="73" y="322" width="8" height="29" fill="#6e6e6e"/>
<rect x="75" y="351" width="4" height="48" fill="#a6a6a6"/>
<rect x="75" y="399" width="4" height="35" fill="#a6a6a6"/>
<rect x="75" y="434" width="4" height="48" fill="#a6a6a6"/>
<rect x="75" y="482" width="4" height="30" fill="#a6a6a6"/>
<rect x="76" y="0" width="4" height="22" fill="#a6a6a6"/>
<rect x="76" y="22" width="4" height="28" fill="#a6a6a6"/>
<rect x="76" y="50" width="4" height="32" fill="#a6a6a6"/>
<rect x="106" y="22" width="4" height="28" fill="#a6a6a6"/>
<rect x="106" y="50" width="4" height="32" fill="#a6a6a6"/>
<rect x="106" y="82" width="4" height="58" fill="#a6a6a6"/>
<rect x="106" y="140" width="4" height="34" fill="#a6a6a6"/>
<rect x="106" y="174" width="4" height="41" fill="#a6a6a6"/>
<rect x="106" y="215" width="4" height="28" fill="#a6a6a6"/>
<rect x="106" y="243" width="4" height="26" fill="#a6a6a6"/>
<rect x="104" y="269" width="8" height="25" fill="#6e6e6e"/>
<rect x="104" y="294" width="8" height="28" fill="#6e6e6e"/>
<rect x="104" y="322" width="8" height="29" fill="#6e6e6e"/>
<rect x="106" y="351" width="4" height="48" fill="#a6a6a6"/>
<rect x="106" y="399" width="4" height="35" fill="#a6a6a6"/>
<rect x="106" y="434" width="4" height="48" fill="#a6a6a6"/>
<rect x="126" y="174" width="8" height="41" fill="#6e6e6e"/>
<rect x="126" y="215" width="8" height="28" fill="#6e6e6e"/>
<rect x="132" y="322" width="8" height="29" fill="#6e6e6e"/>
<rect x="134" y="351" width="4" height="48" fill="#a6a6a6"/>
<rect x="134" y="399" width="4" height="35" fill="#a6a6a6"/>
<rect x="134" y="434" width="4" height="48" fill="#a6a6a6"/>
<rect x="134" y="482" width="4" height="30" fill="#a6a6a6"/>
<rect x="137" y="0" width="4" height="22" fill="#a6a6a6"/>
<rect x="137" y="22" width="4" height="28" fill="#a6a6a6"/>
<rect x="137" y="50" width="4" height="32" fill="#a6a6a6"/>
<rect x="165" y="0" width="4" height="22" fill="#a6a6a6"/>
<rect x="165" y="22" width="4" height="28" fill="#a6a6a6"/>
<rect x="169" y="82" width="4" height="30" fill="#a6a6a6"/>
<rect x="169" y="112" width="4" height="28" fill="#a6a6a6"/>
<rect x="169" y="140" width="4" height="34" fill="#a6a6a6"/>
<rect x="169" y="174" width="4" height="41" fill="#a6a6a6"/>
<rect x="169" y="215" width="4" height="28" fill="#a6a6a6"/>
<rect x="169" y="243" width="4" height="26" fill="#a6a6a6"/>
<rect x="167" y="269" width="8" height="53" fill="#6e6e6e"/>
<rect x="167" y="322" width="8" height="29" fill="#6e6e6e"/>
<rect x="167" y="351" width="8" height="48" fill="#6e6e6e"/>
<rect x="167" y="399" width="8" height="35" fill="#6e6e6e"/>
<rect x="167" y="434" width="8" height="48" fill="#6e6e6e"/>
<rect x="193" y="22" width="4" height="28" fill="#a6a6a6"/>
<rect x="213" y="0" width="12" height="22" fill="#2b2b2b"/>
<rect x="213" y="22" width="12" height="28" fill="#2b2b2b"/>
<rect x="213" y="50" width="12" height="32" fill="#2b2b2b"/>
<rect x="213" y="82" width="12" height="30" fill="#2b2b2b"/>
<rect x="213" y="112" width="12" height="28" fill="#2b2b2b"/>
<rect x="213" y="140" width="12" height="34" fill="#2b2b2b"/>
<rect x="213" y="174" width="12" height="41" fill="#2b2b2b"/>
<rect x="213" y="215" width="12" height="54" fill="#2b2b2b"/>
<rect x="213" y="269" width="12" height="53" fill="#2b2b2b"/>
<rect x="213" y="322" width="12" height="29" fill="#2b2b2b"/>
<rect x="213" y="351" width="12" height="48" fill="#2b2b2b"/>
<rect x="213" y="399" width="12" height="35" fill="#2b2b2b"/>
<rect x="213" y="434" width="12" height="48" fill="#2b2b2b"/>
<rect x="213" y="482" width="12" height="30" fill="#2b2b2b"/>
<rect x="246" y="0" width="12" height="22" fill="#2b2b2b"/>
<rect x="246" y="22" width="12" height="60" fill="#2b2b2b"/>
<rect x="246" y="82" width="12" height="30" fill="#2b2b2b"/>
<rect x="246" y="112" width="12" height="28" fill="#2b2b2b"/>
<rect x="246" y="140" width="12" height="34" fill="#2b2b2b"/>
<rect x="246" y="174" width="12" height="41" fill="#2b2b2b"/>
<rect x="246" y="215" width="12" height="54" fill="#2b2b2b"/>
<rect x="246" y="269" width="12" height="53" fill="#2b2b2b"/>
<rect x="246" y="322" width="12" height="29" fill="#2b2b2b"/>
<rect x="246" y="351" width="12" height="48" fill="#2b2b2b"/>
<rect x="246" y="399" width="12" height="35" fill="#2b2b2b"/>
<rect x="246" y="434" width="12" height="48" fill="#2b2b2b"/>
<rect x="246" y="482" width="12" height="30" fill="#2b2b2b"/>
<rect x="290" y="215" width="4" height="54" fill="#a6a6a6"/>
<rect x="288" y="269" width="8" height="53" fill="#6e6e6e"/>
<rect x="288" y="322" width="8" height="29" fill="#6e6e6e"/>
<rect x="290" y="351" width="4" height="20" fill="#a6a6a6"/>
<rect x="290" y="371" width="4" height="28" fill="#a6a6a6"/>
<rect x="290" y="399" width="4" height="35" fill="#a6a6a6"/>
<rect x="290" y="434" width="4" height="20" fill="#a6a6a6"/>
<rect x="290" y="454" width="4" height="28" fill="#a6a6a6"/>
<rect x="290" y="482" width="4" height="30" fill="#a6a6a6"/>
<rect x="323" y="434" width="4" height="20" fill="#a6a6a6"/>
<rect x="323" y="454" width="4" height="28" fill="#a6a6a6"/>
<rect x="326" y="0" width="4" height="23" fill="#a6a6a6"/>
<rect x="326" y="23" width="4" height="28" fill="#a6a6a6"/>
<rect x="326" y="51" width="4" height="31" fill="#a6a6a6"/>
<rect x="326" y="82" width="4" height="28" fill="#a6a6a6"/>
<rect x="326" y="110" width="4" height="30" fill="#a6a6a6"/>
<rect x="326" y="140" width="4" height="75" fill="#a6a6a6"/>
<rect x="326" y="215" width="4" height="54" fill="#a6a6a6"/>
<rect x="326" y="269" width="4" height="53" fill="#a6a6a6"/>
<rect x="326" y="322" width="4" height="29" fill="#a6a6a6"/>
<rect x="326" y="351" width="4" height="20" fill="#a6a6a6"/>
<rect x="326" y="371" width="4" height="28" fill="#a6a6a6"/>
<rect x="358" y="215" width="4" height="20" fill="#a6a6a6"/>
<rect x="358" y="235" width="4" height="34" fill="#a6a6a6"/>
<rect x="358" y="269" width="4" height="53" fill="#a6a6a6"/>
<rect x="358" y="322" width="4" height="29" fill="#a6a6a6"/>
<rect x="358" y="351" width="4" height="20" fill="#a6a6a6"/>
<rect x="358" y="371" width="4" height="28" fill="#a6a6a6"/>
<rect x="358" y="399" width="4" height="35" fill="#a6a6a6"/>
<rect x="358" y="434" width="4" height="20" fill="#a6a6a6"/>
<rect x="358" y="454" width="4" height="28" fill="#a6a6a6"/>
<rect x="358" y="482" width="4" height="30" fill="#a6a6a6"/>
<rect x="370" y="0" width="4" height="23" fill="#a6a6a6"/>
<rect x="370" y="23" width="4" height="28" fill="#a6a6a6"/>
<rect x="370" y="51" width="4" height="31" fill="#a6a6a6"/>
<rect x="370" y="82" width="4" height="28" fill="#a6a6a6"/>
<rect x="370" y="110" width="4" height="30" fill="#a6a6a6"/>
<rect x="388" y="215" width="4" height="20" fill="#a6a6a6"/>
<rect x="388" y="235" width="4" height="34" fill="#a6a6a6"/>
<rect x="388" y="269" width="4" height="53" fill="#a6a6a6"/>
<rect x="388" y="322" width="4" height="29" fill="#a6a6a6"/>
<rect x="388" y="351" width="4" height="20" fill="#a6a6a6"/>
<rect x="388" y="371" width="4" height="28" fill="#a6a6a6"/>
<rect x="388" y="399" width="4" height="35" fill="#a6a6a6"/>
<rect x="388" y="434" width="4" height="20" fill="#a6a6a6"/>
<rect x="388" y="454" width="4" height="28" fill="#a6a6a6"/>
<rect x="400" y="0" width="4" height="23" fill="#a6a6a6"/>
<rect x="400" y="23" width="4" height="31" fill="#a6a6a6"/>
<rect x="400" y="54" width="4" height="28" fill="#a6a6a6"/>
<rect x="400" y="82" width="4" height="28" fill="#a6a6a6"/>
<rect x="400" y="110" width="4" height="30" fill="#a6a6a6"/>
<rect x="416" y="215" width="4" height="20" fill="#a6a6a6"/>
<rect x="416" y="235" width="4" height="34" fill="#a6a6a6"/>
<rect x="416" y="269" width="4" height="53" fill="#a6a6a6"/>
<rect x="416" y="322" width="4" height="29" fill="#a6a6a6"/>
<rect x="416" y="351" width="4" height="20" fill="#a6a6a6"/>
<rect x="416" y="371" width="4" height="28" fill="#a6a6a6"/>
<rect x="416" y="399" width="4" height="35" fill="#a6a6a6"/>
<rect x="416" y="434" width="4" height="48" fill="#a6a6a6"/>
<rect x="416" y="482" width="4" height="30" fill="#a6a6a6"/>
<rect x="438" y="0" width="4" height="23" fill="#a6a6a6"/>
<rect x="438" y="23" width="4" height="31" fill="#a6a6a6"/>
<rect x="438" y="54" width="4" height="28" fill="#a6a6a6"/>
<rect x="438" y="82" width="4" height="28" fill="#a6a6a6"/>
<rect x="438" y="110" width="4" height="30" fill="#a6a6a6"/>
<rect x="446" y="434" width="4" height="78" fill="#a6a6a6"/>
<rect x="447" y="215" width="4" height="20" fill="#a6a6a6"/>
<rect x="447" y="235" width="4" height="34" fill="#a6a6a6"/>
<rect x="485" y="215" width="4" height="20" fill="#a6a6a6"/>
<rect x="485" y="235" width="4" height="34" fill="#a6a6a6"/>
<rect x="78" y="20" width="30" height="4" fill="#a6a6a6"/>
<rect x="108" y="20" width="31" height="4" fill="#a6a6a6"/>
<rect x="167" y="20" width="28" height="4" fill="#a6a6a6"/>
<rect x="195" y="20" width="24" height="4" fill="#a6a6a6"/>
<rect x="219" y="20" width="33" height="4" fill="#a6a6a6"/>
<rect x="328" y="21" width="44" height="4" fill="#a6a6a6"/>
<rect x="372" y="21" width="30" height="4" fill="#a6a6a6"/>
<rect x="402" y="21" width="38" height="4" fill="#a6a6a6"/>
<rect x="78" y="48" width="30" height="4" fill="#a6a6a6"/>
<rect x="108" y="48" width="31" height="4" fill="#a6a6a6"/>
<rect x="139" y="48" width="28" height="4" fill="#a6a6a6"/>
<rect x="167" y="48" width="28" height="4" fill="#a6a6a6"/>
<rect x="195" y="48" width="24" height="4" fill="#a6a6a6"/>
<rect x="328" y="49" width="44" height="4" fill="#a6a6a6"/>
<rect x="402" y="52" width="38" height="4" fill="#a6a6a6"/>
<rect x="0" y="78" width="29" height="8" fill="#6e6e6e"/>
<rect x="29" y="78" width="49" height="8" fill="#6e6e6e"/>
<rect x="78" y="78" width="30" height="8" fill="#6e6e6e"/>
<rect x="108" y="78" width="31" height="8" fill="#6e6e6e"/>
<rect x="139" y="78" width="32" height="8" fill="#6e6e6e"/>
<rect x="171" y="78" width="48" height="8" fill="#6e6e6e"/>
<rect x="219" y="80" width="33" height="4" fill="#a6a6a6"/>
<rect x="252" y="80" width="76" height="4" fill="#a6a6a6"/>
<rect x="328" y="80" width="44" height="4" fill="#a6a6a6"/>
<rect x="372" y="80" width="30" height="4" fill="#a6a6a6"/>
<rect x="402" y="80" width="38" height="4" fill="#a6a6a6"/>
<rect x="440" y="80" width="72" height="4" fill="#a6a6a6"/>
<rect x="328" y="108" width="44" height="4" fill="#a6a6a6"/>
<rect x="372" y="108" width="30" height="4" fill="#a6a6a6"/>
<rect x="402" y="108" width="38" height="4" fill="#a6a6a6"/>
<rect x="171" y="110" width="48" height="4" fill="#a6a6a6"/>
<rect x="219" y="110" width="33" height="4" fill="#a6a6a6"/>
<rect x="108" y="138" width="63" height="4" fill="#a6a6a6"/>
<rect x="171" y="138" width="48" height="4" fill="#a6a6a6"/>
<rect x="219" y="136" width="33" height="8" fill="#6e6e6e"/>
<rect x="252" y="136" width="76" height="8" fill="#6e6e6e"/>
<rect x="328" y="136" width="44" height="8" fill="#6e6e6e"/>
<rect x="372" y="136" width="30" height="8" fill="#6e6e6e"/>
<rect x="402" y="136" width="38" height="8" fill="#6e6e6e"/>
<rect x="440" y="136" width="72" height="8" fill="#6e6e6e"/>
<rect x="0" y="172" width="29" height="4" fill="#a6a6a6"/>
<rect x="29" y="172" width="48" height="4" fill="#a6a6a6"/>
<rect x="77" y="172" width="31" height="4" fill="#a6a6a6"/>
<rect x="108" y="170" width="22" height="8" fill="#6e6e6e"/>
<rect x="130" y="170" width="41" height="8" fill="#6e6e6e"/>
<rect x="171" y="172" width="48" height="4" fill="#a6a6a6"/>
<rect x="219" y="172" width="33" height="4" fill="#a6a6a6"/>
<rect x="29" y="211" width="20" height="8" fill="#6e6e6e"/>
<rect x="49" y="211" width="28" height="8" fill="#6e6e6e"/>
<rect x="77" y="211" width="31" height="8" fill="#6e6e6e"/>
<rect x="108" y="213" width="22" height="4" fill="#a6a6a6"/>
<rect x="130" y="213" width="41" height="4" fill="#a6a6a6"/>
<rect x="171" y="213" width="48" height="4" fill="#a6a6a6"/>
<rect x="219" y="213" width="33" height="4" fill="#a6a6a6"/>
<rect x="252" y="213" width="40" height="4" fill="#a6a6a6"/>
<rect x="292" y="213" width="36" height="4" fill="#a6a6a6"/>
<rect x="328" y="213" width="32" height="4" fill="#a6a6a6"/>
<rect x="360" y="213" width="30" height="4" fill="#a6a6a6"/>
<rect x="390" y="213" width="28" height="4" fill="#a6a6a6"/>
<rect x="418" y="213" width="31" height="4" fill="#a6a6a6"/>
<rect x="449" y="213" width="38" height="4" fill="#a6a6a6"/>
<rect x="487" y="213" width="25" height="4" fill="#a6a6a6"/>
<rect x="360" y="233" width="30" height="4" fill="#a6a6a6"/>
<rect x="390" y="233" width="28" height="4" fill="#a6a6a6"/>
<rect x="418" y="233" width="31" height="4" fill="#a6a6a6"/>
<rect x="449" y="233" width="38" height="4" fill="#a6a6a6"/>
<rect x="29" y="241" width="20" height="4" fill="#a6a6a6"/>
<rect x="49" y="241" width="28" height="4" fill="#a6a6a6"/>
<rect x="108" y="239" width="22" height="8" fill="#6e6e6e"/>
<rect x="130" y="239" width="41" height="8" fill="#6e6e6e"/>
<rect x="0" y="263" width="29" height="12" fill="#2b2b2b"/>
<rect x="29" y="263" width="48" height="12" fill="#2b2b2b"/>
<rect x="77" y="263" width="31" height="12" fill="#2b2b2b"/>
<rect x="108" y="263" width="63" height="12" fill="#2b2b2b"/>
<rect x="171" y="263" width="48" height="12" fill="#2b2b2b"/>
<rect x="219" y="267" width="33" height="4" fill="#a6a6a6"/>
<rect x="252" y="265" width="40" height="8" fill="#6e6e6e"/>
<rect x="292" y="265" width="36" height="8" fill="#6e6e6e"/>
<rect x="328" y="267" width="32" height="4" fill="#a6a6a6"/>
<rect x="360" y="267" width="30" height="4" fill="#a6a6a6"/>
<rect x="390" y="267" width="28" height="4" fill="#a6a6a6"/>
<rect x="418" y="267" width="31" height="4" fill="#a6a6a6"/>
<rect x="449" y="267" width="38" height="4" fill="#a6a6a6"/>
<rect x="487" y="267" width="25" height="4" fill="#a6a6a6"/>
<rect x="77" y="292" width="31" height="4" fill="#a6a6a6"/>
<rect x="77" y="320" width="31" height="4" fill="#a6a6a6"/>
<rect x="108" y="318" width="28" height="8" fill="#6e6e6e"/>
<rect x="136" y="318" width="35" height="8" fill="#6e6e6e"/>
<rect x="171" y="318" width="48" height="8" fill="#6e6e6e"/>
<rect x="219" y="318" width="33" height="8" fill="#6e6e6e"/>
<rect x="252" y="318" width="40" height="8" fill="#6e6e6e"/>
<rect x="292" y="318" width="36" height="8" fill="#6e6e6e"/>
<rect x="328" y="320" width="32" height="4" fill="#a6a6a6"/>
<rect x="360" y="320" width="30" height="4" fill="#a6a6a6"/>
<rect x="390" y="320" width="28" height="4" fill="#a6a6a6"/>
<rect x="418" y="320" width="94" height="4" fill="#a6a6a6"/>
<rect x="0" y="347" width="77" height="8" fill="#6e6e6e"/>
<rect x="77" y="347" width="31" height="8" fill="#6e6e6e"/>
<rect x="108" y="347" width="28" height="8" fill="#6e6e6e"/>
<rect x="136" y="347" width="35" height="8" fill="#6e6e6e"/>
<rect x="171" y="347" width="48" height="8" fill="#6e6e6e"/>
<rect x="219" y="347" width="33" height="8" fill="#6e6e6e"/>
<rect x="252" y="349" width="40" height="4" fill="#a6a6a6"/>
<rect x="292" y="349" width="36" height="4" fill="#a6a6a6"/>
<rect x="328" y="349" width="32" height="4" fill="#a6a6a6"/>
<rect x="360" y="349" width="30" height="4" fill="#a6a6a6"/>
<rect x="390" y="349" width="28" height="4" fill="#a6a6a6"/>
<rect x="418" y="349" width="94" height="4" fill="#a6a6a6"/>
<rect x="292" y="369" width="36" height="4" fill="#a6a6a6"/>
<rect x="328" y="369" width="32" height="4" fill="#a6a6a6"/>
<rect x="360" y="369" width="30" height="4" fill="#a6a6a6"/>
<rect x="390" y="369" width="28" height="4" fill="#a6a6a6"/>
<rect x="77" y="397" width="31" height="4" fill="#a6a6a6"/>
<rect x="108" y="397" width="28" height="4" fill="#a6a6a6"/>
<rect x="136" y="395" width="35" height="8" fill="#6e6e6e"/>
<rect x="171" y="395" width="48" height="8" fill="#6e6e6e"/>
<rect x="219" y="395" width="33" height="8" fill="#6e6e6e"/>
<rect x="252" y="395" width="40" height="8" fill="#6e6e6e"/>
<rect x="292" y="397" width="36" height="4" fill="#a6a6a6"/>
<rect x="328" y="397" width="32" height="4" fill="#a6a6a6"/>
<rect x="360" y="397" width="30" height="4" fill="#a6a6a6"/>
<rect x="390" y="397" width="28" height="4" fill="#a6a6a6"/>
<rect x="0" y="432" width="36" height="4" fill="#a6a6a6"/>
<rect x="36" y="432" width="41" height="4" fill="#a6a6a6"/>
<rect x="77" y="432" width="31" height="4" fill="#a6a6a6"/>
<rect x="108" y="432" width="28" height="4" fill="#a6a6a6"/>
<rect x="136" y="430" width="35" height="8" fill="#6e6e6e"/>
<rect x="171" y="430" width="48" height="8" fill="#6e6e6e"/>
<rect x="219" y="432" width="33" height="4" fill="#a6a6a6"/>
<rect x="252" y="432" width="40" height="4" fill="#a6a6a6"/>
<rect x="292" y="432" width="33" height="4" fill="#a6a6a6"/>
<rect x="325" y="432" width="35" height="4" fill="#a6a6a6"/>
<rect x="360" y="432" width="30" height="4" fill="#a6a6a6"/>
<rect x="390" y="432" width="28" height="4" fill="#a6a6a6"/>
<rect x="418" y="432" width="30" height="4" fill="#a6a6a6"/>
<rect x="448" y="432" width="64" height="4" fill="#a6a6a6"/>
<rect x="292" y="452" width="33" height="4" fill="#a6a6a6"/>
<rect x="325" y="452" width="35" height="4" fill="#a6a6a6"/>
<rect x="360" y="452" width="30" height="4" fill="#a6a6a6"/>
<rect x="77" y="480" width="31" height="4" fill="#a6a6a6"/>
<rect x="108" y="480" width="28" height="4" fill="#a6a6a6"/>
<rect x="136" y="478" width="35" height="8" fill="#6e6e6e"/>
<rect x="171" y="478" width="48" height="8" fill="#6e6e6e"/>
<rect x="219" y="480" width="33" height="4" fill="#a6a6a6"/>
<rect x="252" y="480" width="40" height="4" fill="#a6a6a6"/>
<rect x="292" y="480" width="33" height="4" fill="#a6a6a6"/>
<rect x="325" y="480" width="35" height="4" fill="#a6a6a6"/>
<rect x="360" y="480" width="30" height="4" fill="#a6a6a6"/>
<rect x="390" y="480" width="28" height="4" fill="#a6a6a6"/>
<rect x="196" y="317" width="40" height="22" fill="none" stroke="#d81b60" stroke-width="1"/>
<text x="196" y="315" font-family="sans-serif" font-size="6" fill="#d81b60">core</text>
<rect x="472" y="0" width="40" height="22" fill="none" stroke="#1e88e5" stroke-width="1"/>
<text x="472" y="-2" font-family="sans-serif" font-size="6" fill="#1e88e5">periphery</text>
<polyline points="487,269 449,269 418,269 390,269 360,269 328,269 328,215 328,140 372,140 402,140 440,140 512,140" fill="none" stroke="#ff8f00" stroke-width="2.5"/>
<polyline points="487,269 487,140 512,140" fill="none" stroke="#ff8f00" stroke-width="1.5" stroke-dasharray="6 4"/>
<circle cx="487" cy="269" r="5" fill="none" stroke="#ff8f00" stroke-width="1.5"/>
<circle cx="512" cy="140" r="5" fill="none" stroke="#ff8f00" stroke-width="1.5"/>
<rect x="8" y="524" width="16" height="16" fill="#bfe3bf"/>
<text x="28" y="536" font-family="sans-serif" font-size="12" fill="#111">residential</text>
<rect x="148" y="524" width="16" height="16" fill="#bcd9f7"/>
<text x="168" y="536" font-family="sans-serif" font-size="12" fill="#111">commercial</text>
<rect x="288" y="524" width="16" height="16" fill="#f2cf9e"/>
<text x="308" y="536" font-family="sans-serif" font-size="12" fill="#111">industrial</text>
<rect x="428" y="524" width="16" height="16" fill="#ddc2ef"/>
<text x="448" y="536" font-family="sans-serif" font-size="12" fill="#111">institutional</text>
<rect x="8" y="552" width="16" height="16" fill="#2b2b2b"/>
<text x="28" y="564" font-family="sans-serif" font-size="12" fill="#111">arterial</text>
<rect x="118" y="552" width="16" height="16" fill="#6e6e6e"/>
<text x="138" y="564" font-family="sans-serif" font-size="12" fill="#111">street</text>
<rect x="228" y="552" width="16" height="16" fill="#a6a6a6"/>
<text x="248" y="564" font-family="sans-serif" font-size="12" fill="#111">lane</text>
<line x1="8" y1="588" x2="32" y2="588" stroke="#ff8f00" stroke-width="2.5"/>
<text x="38" y="592" font-family="sans-serif" font-size="11" fill="#111">shortest street route</text>
<line x1="200" y1="588" x2="224" y2="588" stroke="#ff8f00" stroke-width="1.5" stroke-dasharray="6 4"/>
<text x="230" y="592" font-family="sans-serif" font-size="11" fill="#111">Manhattan L</text>
<text x="8" y="616" font-family="sans-serif" font-size="12" fill="#111">worst pair (487, 269)-(512, 140): excess 318 cells (network 472, Manhattan 154)</text>
</svg>
