<svg xmlns="http://www.w3.org/2000/svg" width="528" height="640" viewBox="-8 -8 528 640">
<rect x="-8" y="-8" width="528" height="640" fill="#ffffff"/>
<rect x="0" y="0" width="47" height="24" fill="#ddc2ef" fill-opacity="0.55"/>
<rect x="51" y="0" width="49" height="24" fill="#ddc2ef" fill-opacity="0.55"/>
<rect x="112" y="0" width="69" height="24" fill="#bfe3bf" fill-opacity="0.55"/>
<rect x="185" y="0" width="99" height="169" fill="#f2cf9e" fill-opacity="0.55"/>
<rect x="288" y="0" width="80" height="169" fill="#f2cf9e" fill-opacity="0.55"/>
<rect x="380" y="0" width="33" height="61" fill="#f2cf9e" fill-opacity="0.55"/>
<rect x="417" y="0" width="95" height="61" fill="#bfe3bf" fill-opacity="0.55"/>
<rect x="0" y="28" width="47" height="68" fill="#bfe3bf" fill-opacity="0.55"/>
<rect x="51" y="28" width="49" height="68" fill="#bfe3bf" fill-opacity="0.55"/>
<rect x="112" y="28" width="69" height="70" fill="#bfe3bf" fill-opacity="0.55"/>
<rect x="380" y="65" width="33" height="41" fill="#f2cf9e" fill-opacity="0.55"/>
<rect x="417" y="65" width="95" height="41" fill="#bfe3bf" fill-opacity="0.55"/>
<rect x="112" y="102" width="69" height="67" fill="#bfe3bf" fill-opacity="0.55"/>
<rect x="0" y="104" width="47" height="65" fill="#ddc2ef" fill-opacity="0.55"/>
<rect x="51" y="104" width="49" height="65" fill="#ddc2ef" fill-opacity="0.55"/>
<rect x="380" y="110" width="81" height="57" fill="#bfe3bf" fill-opacity="0.55"/>
<rect x="465" y="110" width="47" height="57" fill="#bfe3bf" fill-opacity="0.55"/>
<rect x="0" y="173" width="47" height="31" fill="#bfe3bf" fill-opacity="0.55"/>
<rect x="51" y="173" width="49" height="31" fill="#bfe3bf" fill-opacity="0.55"/>
<rect x="112" y="173" width="69" height="83" fill="#bfe3bf" fill-opacity="0.55"/>
<rect x="185" y="173" width="45" height="56" fill="#bfe3bf" fill-opacity="0.55"/>
<rect x="238" y="173" width="44" height="54" fill="#bcd9f7" fill-opacity="0.55"/>
<rect x="290" y="173" width="78" height="28" fill="#f2cf9e" fill-opacity="0.55"/>
<rect x="380" y="175" width="81" height="81" fill="#bfe3bf" fill-opacity="0.55"/>
<rect x="465" y="175" width="47" height="81" fill="#bfe3bf" fill-opacity="0.55"/>
<rect x="290" y="205" width="78" height="51" fill="#bfe3bf" fill-opacity="0.55"/>
<rect x="0" y="208" width="47" height="44" fill="#bfe3bf" fill-opacity="0.55"/>
<rect x="51" y="208" width="49" height="44" fill="#bfe3bf" fill-opacity="0.55"/>
<rect x="185" y="233" width="45" height="23" fill="#bcd9f7" fill-opacity="0.55"/>
<rect x="238" y="235" width="44" height="21" fill="#bcd9f7" fill-opacity="0.55"/>
<rect x="112" y="260" width="21" height="35" fill="#bcd9f7" fill-opacity="0.55"/>
<rect x="141" y="260" width="38" height="35" fill="#bcd9f7" fill-opacity="0.55"/>
<rect x="187" y="260" width="43" height="35" fill="#bcd9f7" fill-opacity="0.55"/>
<rect x="238" y="260" width="44" height="35" fill="#bcd9f7" fill-opacity="0.55"/>
<rect x="290" y="260" width="39" height="37" fill="#bfe3bf" fill-opacity="0.55"/>
<rect x="333" y="260" width="35" height="37" fill="#bfe3bf" fill-opacity="0.55"/>
<rect x="380" y="260" width="81" height="37" fill="#ddc2ef" fill-opacity="0.55"/>
<rect x="465" y="260" width="47" height="37" fill="#bfe3bf" fill-opacity="0.55"/>
<rect x="0" y="264" width="47" height="33" fill="#bfe3bf" fill-opacity="0.55"/>
<rect x="51" y="264" width="49" height="33" fill="#bfe3bf" fill-opacity="0.55"/>
<rect x="0" y="301" width="47" height="41" fill="#ddc2ef" fill-opacity="0.55"/>
<rect x="51" y="301" width="49" height="41" fill="#bfe3bf" fill-opacity="0.55"/>
<rect x="290" y="301" width="39" height="41" fill="#bcd9f7" fill-opacity="0.55"/>
<rect x="333" y="301" width="35" height="43" fill="#bfe3bf" fill-opacity="0.55"/>
<rect x="380" y="301" width="40" height="116" fill="#bfe3bf" fill-opacity="0.55"/>
<rect x="424" y="301" width="88" height="116" fill="#bfe3bf" fill-opacity="0.55"/>
<rect x="112" y="303" width="21" height="39" fill="#bcd9f7" fill-opacity="0.55"/>
<rect x="141" y="303" width="38" height="39" fill="#bcd9f7" fill-opacity="0.55"/>
<rect x="187" y="303" width="43" height="39" fill="#bcd9f7" fill-opacity="0.55"/>
<rect x="238" y="303" width="44" height="39" fill="#bcd9f7" fill-opacity="0.55"/>
<rect x="333" y="348" width="35" height="24" fill="#bfe3bf" fill-opacity="0.55"/>
<rect x="0" y="350" width="47" height="56" fill="#bfe3bf" fill-opacity="0.55"/>
<rect x="51" y="350" width="49" height="56" fill="#bcd9f7" fill-opacity="0.55"/>
<rect x="112" y="350" width="21" height="22" fill="#bcd9f7" fill-opacity="0.55"/>
<rect x="141" y="350" width="38" height="22" fill="#bcd9f7" fill-opacity="0.55"/>
<rect x="187" y="350" width="43" height="22" fill="#bcd9f7" fill-opacity="0.55"/>
<rect x="238" y="350" width="44" height="22" fill="#bcd9f7" fill-opacity="0.55"/>
<rect x="290" y="350" width="39" height="22" fill="#bcd9f7" fill-opacity="0.55"/>
<rect x="112" y="380" width="21" height="24" fill="#bcd9f7" fill-opacity="0.55"/>
<rect x="141" y="380" width="40" height="24" fill="#bcd9f7" fill-opacity="0.55"/>
<rect x="185" y="380" width="99" height="74" fill="#bcd9f7" fill-opacity="0.55"/>
<rect x="288" y="380" width="41" height="37" fill="#bcd9f7" fill-opacity="0.55"/>
<rect x="333" y="380" width="35" height="37" fill="#bfe3bf" fill-opacity="0.55"/>
<rect x="0" y="410" width="47" height="44" fill="#bfe3bf" fill-opacity="0.55"/>
<rect x="51" y="410" width="49" height="44" fill="#bcd9f7" fill-opacity="0.55"/>
<rect x="112" y="412" width="23" height="42" fill="#bfe3bf" fill-opacity="0.55"/>
<rect x="139" y="412" width="42" height="42" fill="#bfe3bf" fill-opacity="0.55"/>
<rect x="288" y="421" width="41" height="91" fill="#bfe3bf" fill-opacity="0.55"/>
<rect x="333" y="421" width="35" height="38" fill="#bfe3bf" fill-opacity="0.55"/>
<rect x="380" y="421" width="75" height="38" fill="#bfe3bf" fill-opacity="0.55"/>
<rect x="459" y="421" width="53" height="91" fill="#bfe3bf" fill-opacity="0.55"/>
<rect x="0" y="458" width="47" height="54" fill="#bfe3bf" fill-opacity="0.55"/>
<rect x="51" y="458" width="49" height="54" fill="#bfe3bf" fill-opacity="0.55"/>
<rect x="112" y="458" width="69" height="54" fill="#bfe3bf" fill-opacity="0.55"/>
<rect x="185" y="458" width="99" height="54" fill="#bfe3bf" fill-opacity="0.55"/>
<rect x="333" y="463" width="35" height="49" fill="#bfe3bf" fill-opacity="0.55"/>
<rect x="380" y="463" width="75" height="49" fill="#bfe3bf" fill-opacity="0.55"/>
<rect x="47" y="0" width="4" height="26" fill="#a6a6a6"/>
<rect x="47" y="26" width="4" height="74" fill="#a6a6a6"/>
<rect x="47" y="100" width="4" height="71" fill="#a6a6a6"/>
<rect x="47" y="171" width="4" height="35" fill="#a6a6a6"/>
<rect x="47" y="206" width="4" height="52" fill="#a6a6a6"/>
<rect x="47" y="258" width="4" height="41" fill="#a6a6a6"/>
<rect x="47" y="299" width="4" height="47" fill="#a6a6a6"/>
<rect x="47" y="346" width="4" height="62" fill="#a6a6a6"/>
<rect x="47" y="408" width="4" height="48" fill="#a6a6a6"/>
<rect x="47" y="456" width="4" height="56" fill="#a6a6a6"/>
<rect x="100" y="0" width="12" height="26" fill="#2b2b2b"/>
<rect x="100" y="26" width="12" height="74" fill="#2b2b2b"/>
<rect x="100" y="100" width="12" height="71" fill="#2b2b2b"/>
<rect x="100" y="171" width="12" height="35" fill="#2b2b2b"/>
<rect x="100" y="206" width="12" height="52" fill="#2b2b2b"/>
<rect x="100" y="258" width="12" height="41" fill="#2b2b2b"/>
<rect x="100" y="299" width="12" height="47" fill="#2b2b2b"/>
<rect x="100" y="346" width="12" height="30" fill="#2b2b2b"/>
<rect x="100" y="376" width="12" height="32" fill="#2b2b2b"/>
<rect x="100" y="408" width="12" height="48" fill="#2b2b2b"/>
<rect x="100" y="456" width="12" height="56" fill="#2b2b2b"/>
<rect x="133" y="258" width="8" height="41" fill="#6e6e6e"/>
<rect x="133" y="299" width="8" height="47" fill="#6e6e6e"/>
<rect x="133" y="346" width="8" height="30" fill="#6e6e6e"/>
<rect x="133" y="376" width="8" height="32" fill="#6e6e6e"/>
<rect x="135" y="408" width="4" height="48" fill="#a6a6a6"/>
<rect x="181" y="0" width="4" height="26" fill="#a6a6a6"/>
<rect x="181" y="26" width="4" height="74" fill="#a6a6a6"/>
<rect x="181" y="100" width="4" height="71" fill="#a6a6a6"/>
<rect x="181" y="171" width="4" height="60" fill="#a6a6a6"/>
<rect x="181" y="231" width="4" height="27" fill="#a6a6a6"/>
<rect x="179" y="258" width="8" height="41" fill="#6e6e6e"/>
<rect x="179" y="299" width="8" height="47" fill="#6e6e6e"/>
<rect x="179" y="346" width="8" height="30" fill="#6e6e6e"/>
<rect x="181" y="376" width="4" height="32" fill="#a6a6a6"/>
<rect x="181" y="408" width="4" height="48" fill="#a6a6a6"/>
<rect x="181" y="456" width="4" height="56" fill="#a6a6a6"/>
<rect x="230" y="171" width="8" height="60" fill="#6e6e6e"/>
<rect x="230" y="231" width="8" height="27" fill="#6e6e6e"/>
<rect x="230" y="258" width="8" height="41" fill="#6e6e6e"/>
<rect x="230" y="299" width="8" height="47" fill="#6e6e6e"/>
<rect x="230" y="346" width="8" height="30" fill="#6e6e6e"/>
<rect x="284" y="0" width="4" height="171" fill="#a6a6a6"/>
<rect x="282" y="171" width="8" height="32" fill="#6e6e6e"/>
<rect x="282" y="203" width="8" height="28" fill="#6e6e6e"/>
<rect x="282" y="231" width="8" height="27" fill="#6e6e6e"/>
<rect x="282" y="258" width="8" height="41" fill="#6e6e6e"/>
<rect x="282" y="299" width="8" height="47" fill="#6e6e6e"/>
<rect x="282" y="346" width="8" height="30" fill="#6e6e6e"/>
<rect x="284" y="376" width="4" height="43" fill="#a6a6a6"/>
<rect x="284" y="419" width="4" height="37" fill="#a6a6a6"/>
<rect x="284" y="456" width="4" height="56" fill="#a6a6a6"/>
<rect x="329" y="258" width="4" height="41" fill="#a6a6a6"/>
<rect x="329" y="299" width="4" height="47" fill="#a6a6a6"/>
<rect x="329" y="346" width="4" height="30" fill="#a6a6a6"/>
<rect x="329" y="376" width="4" height="43" fill="#a6a6a6"/>
<rect x="329" y="419" width="4" height="42" fill="#a6a6a6"/>
<rect x="329" y="461" width="4" height="51" fill="#a6a6a6"/>
<rect x="368" y="0" width="12" height="63" fill="#2b2b2b"/>
<rect x="368" y="63" width="12" height="45" fill="#2b2b2b"/>
<rect x="368" y="108" width="12" height="63" fill="#2b2b2b"/>
<rect x="368" y="171" width="12" height="32" fill="#2b2b2b"/>
<rect x="368" y="203" width="12" height="55" fill="#2b2b2b"/>
<rect x="368" y="258" width="12" height="41" fill="#2b2b2b"/>
<rect x="368" y="299" width="12" height="47" fill="#2b2b2b"/>
<rect x="368" y="346" width="12" height="30" fill="#2b2b2b"/>
<rect x="368" y="376" width="12" height="43" fill="#2b2b2b"/>
<rect x="368" y="419" width="12" height="42" fill="#2b2b2b"/>
<rect x="368" y="461" width="12" height="51" fill="#2b2b2b"/>
<rect x="413" y="0" width="4" height="63" fill="#a6a6a6"/>
<rect x="413" y="63" width="4" height="45" fill="#a6a6a6"/>
<rect x="420" y="299" width="4" height="120" fill="#a6a6a6"/>
<rect x="455" y="419" width="4" height="42" fill="#a6a6a6"/>
<rect x="455" y="461" width="4" height="51" fill="#a6a6a6"/>
<rect x="461" y="108" width="4" height="63" fill="#a6a6a6"/>
<rect x="461" y="171" width="4" height="87" fill="#a6a6a6"/>
<rect x="461" y="258" width="4" height="41" fill="#a6a6a6"/>
<rect x="0" y="24" width="49" height="4" fill="#a6a6a6"/>
<rect x="49" y="24" width="57" height="4" fill="#a6a6a6"/>
<rect x="106" y="24" width="77" height="4" fill="#a6a6a6"/>
<rect x="374" y="61" width="41" height="4" fill="#a6a6a6"/>
<rect x="415" y="61" width="97" height="4" fill="#a6a6a6"/>
<rect x="0" y="96" width="49" height="8" fill="#6e6e6e"/>
<rect x="49" y="96" width="57" height="8" fill="#6e6e6e"/>
<rect x="106" y="98" width="77" height="4" fill="#a6a6a6"/>
<rect x="374" y="106" width="41" height="4" fill="#a6a6a6"/>
<rect x="415" y="106" width="48" height="4" fill="#a6a6a6"/>
<rect x="463" y="106" width="49" height="4" fill="#a6a6a6"/>
<rect x="0" y="169" width="49" height="4" fill="#a6a6a6"/>
<rect x="49" y="169" width="57" height="4" fill="#a6a6a6"/>
<rect x="106" y="169" width="77" height="4" fill="#a6a6a6"/>
<rect x="183" y="169" width="51" height="4" fill="#a6a6a6"/>
<rect x="234" y="169" width="52" height="4" fill="#a6a6a6"/>
<rect x="286" y="169" width="88" height="4" fill="#a6a6a6"/>
<rect x="374" y="167" width="89" height="8" fill="#6e6e6e"/>
<rect x="463" y="167" width="49" height="8" fill="#6e6e6e"/>
<rect x="286" y="201" width="88" height="4" fill="#a6a6a6"/>
<rect x="0" y="204" width="49" height="4" fill="#a6a6a6"/>
<rect x="49" y="204" width="57" height="4" fill="#a6a6a6"/>
<rect x="183" y="229" width="51" height="4" fill="#a6a6a6"/>
<rect x="234" y="227" width="52" height="8" fill="#6e6e6e"/>
<rect x="0" y="252" width="49" height="12" fill="#2b2b2b"/>
<rect x="49" y="252" width="57" height="12" fill="#2b2b2b"/>
<rect x="106" y="256" width="31" height="4" fill="#a6a6a6"/>
<rect x="137" y="256" width="46" height="4" fill="#a6a6a6"/>
<rect x="183" y="256" width="51" height="4" fill="#a6a6a6"/>
<rect x="234" y="256" width="52" height="4" fill="#a6a6a6"/>
<rect x="286" y="256" width="45" height="4" fill="#a6a6a6"/>
<rect x="331" y="256" width="43" height="4" fill="#a6a6a6"/>
<rect x="374" y="256" width="89" height="4" fill="#a6a6a6"/>
<rect x="463" y="256" width="49" height="4" fill="#a6a6a6"/>
<rect x="0" y="297" width="49" height="4" fill="#a6a6a6"/>
<rect x="49" y="297" width="57" height="4" fill="#a6a6a6"/>
<rect x="106" y="295" width="31" height="8" fill="#6e6e6e"/>
<rect x="137" y="295" width="46" height="8" fill="#6e6e6e"/>
<rect x="183" y="295" width="51" height="8" fill="#6e6e6e"/>
<rect x="234" y="295" width="52" height="8" fill="#6e6e6e"/>
<rect x="286" y="297" width="45" height="4" fill="#a6a6a6"/>
<rect x="331" y="297" width="43" height="4" fill="#a6a6a6"/>
<rect x="374" y="297" width="48" height="4" fill="#a6a6a6"/>
<rect x="422" y="297" width="41" height="4" fill="#a6a6a6"/>
<rect x="463" y="297" width="49" height="4" fill="#a6a6a6"/>
<rect x="0" y="342" width="49" height="8" fill="#6e6e6e"/>
<rect x="49" y="342" width="57" height="8" fill="#6e6e6e"/>
<rect x="106" y="342" width="31" height="8" fill="#6e6e6e"/>
<rect x="137" y="342" width="46" height="8" fill="#6e6e6e"/>
<rect x="183" y="342" width="51" height="8" fill="#6e6e6e"/>
<rect x="234" y="342" width="52" height="8" fill="#6e6e6e"/>
<rect x="286" y="342" width="45" height="8" fill="#6e6e6e"/>
<rect x="331" y="344" width="43" height="4" fill="#a6a6a6"/>
<rect x="106" y="372" width="31" height="8" fill="#6e6e6e"/>
<rect x="137" y="372" width="46" height="8" fill="#6e6e6e"/>
<rect x="183" y="372" width="51" height="8" fill="#6e6e6e"/>
<rect x="234" y="372" width="52" height="8" fill="#6e6e6e"/>
<rect x="286" y="372" width="45" height="8" fill="#6e6e6e"/>
<rect x="331" y="372" width="43" height="8" fill="#6e6e6e"/>
<rect x="0" y="406" width="49" height="4" fill="#a6a6a6"/>
<rect x="49" y="406" width="57" height="4" fill="#a6a6a6"/>
<rect x="106" y="404" width="31" height="8" fill="#6e6e6e"/>
<rect x="137" y="404" width="46" height="8" fill="#6e6e6e"/>
<rect x="286" y="417" width="45" height="4" fill="#a6a6a6"/>
<rect x="331" y="417" width="43" height="4" fill="#a6a6a6"/>
<rect x="374" y="417" width="48" height="4" fill="#a6a6a6"/>
<rect x="422" y="417" width="35" height="4" fill="#a6a6a6"/>
<rect x="457" y="417" width="55" height="4" fill="#a6a6a6"/>
<rect x="0" y="454" width="49" height="4" fill="#a6a6a6"/>
<rect x="49" y="454" width="57" height="4" fill="#a6a6a6"/>
<rect x="106" y="454" width="31" height="4" fill="#a6a6a6"/>
<rect x="137" y="454" width="46" height="4" fill="#a6a6a6"/>
<rect x="183" y="454" width="103" height="4" fill="#a6a6a6"/>
<rect x="331" y="459" width="43" height="4" fill="#a6a6a6"/>
<rect x="374" y="459" width="83" height="4" fill="#a6a6a6"/>
<rect x="180" y="301" width="40" height="22" fill="none" stroke="#d81b60" stroke-width="1"/>
<text x="180" y="299" font-family="sans-serif" font-size="6" fill="#d81b60">core</text>
<rect x="472" y="490" width="40" height="22" fill="none" stroke="#1e88e5" stroke-width="1"/>
<text x="472" y="488" font-family="sans-serif" font-size="6" fill="#1e88e5">periphery</text>
<polyline points="183,26 183,100 183,171 234,171 286,171 374,171 374,108 415,108 415,63 415,0" fill="none" stroke="#ff8f00" stroke-width="2.5"/>
<polyline points="183,26 183,0 415,0" fill="none" stroke="#ff8f00" stroke-width="1.5" stroke-dasharray="6 4"/>
<circle cx="183" cy="26" r="5" fill="none" stroke="#ff8f00" stroke-width="1.5"/>
<circle cx="415" cy="0" r="5" fill="none" stroke="#ff8f00" stroke-width="1.5"/>
<rect x="8" y="524" width="16" height="16" fill="#bfe3bf"/>
<text x="28" y="536" font-family="sans-serif" font-size="12" fill="#111">residential</text>
<rect x="148" y="524" width="16" height="16" fill="#bcd9f7"/>
<text x="168" y="536" font-family="sans-serif" font-size="12" fill="#111">commercial</text>
<rect x="288" y="524" width="16" height="16" fill="#f2cf9e"/>
<text x="308" y="536" font-family="sans-serif" font-size="12" fill="#111">industrial</text>
<rect x="428" y="524" width="16" height="16" fill="#ddc2ef"/>
<text x="448" y="536" font-family="sans-serif" font-size="12" fill="#111">institutional</text>
<rect x="8" y="552" width="16" height="16" fill="#2b2b2b"/>
<text x="28" y="564" font-family="sans-serif" font-size="12" fill="#111">arterial</text>
<rect x="118" y="552" width="16" height="16" fill="#6e6e6e"/>
<text x="138" y="564" font-family="sans-serif" font-size="12" fill="#111">street</text>
<rect x="228" y="552" width="16" height="16" fill="#a6a6a6"/>
<text x="248" y="564" font-family="sans-serif" font-size="12" fill="#111">lane</text>
<line x1="8" y1="588" x2="32" y2="588" stroke="#ff8f00" stroke-width="2.5"/>
<text x="38" y="592" font-family="sans-serif" font-size="11" fill="#111">shortest street route</text>
<line x1="200" y1="588" x2="224" y2="588" stroke="#ff8f00" stroke-width="1.5" stroke-dasharray="6 4"/>
<text x="230" y="592" font-family="sans-serif" font-size="11" fill="#111">Manhattan L</text>
<text x="8" y="616" font-family="sans-serif" font-size="12" fill="#111">worst pair (183, 26)-(415, 0): excess 290 cells (network 548, Manhattan 258)</text>
</svg>
