<svg xmlns="http://www.w3.org/2000/svg" width="512" height="568" viewBox="0 0 512 568">
<rect x="0" y="0" width="512" height="568" fill="#ffffff"/>
<rect x="0" y="0" width="64" height="51" fill="#bfe3bf" fill-opacity="0.55"/>
<rect x="72" y="0" width="70" height="51" fill="#bfe3bf" fill-opacity="0.55"/>
<rect x="146" y="0" width="29" height="51" fill="#bfe3bf" fill-opacity="0.55"/>
<rect x="179" y="0" width="64" height="51" fill="#bfe3bf" fill-opacity="0.55"/>
<rect x="255" y="0" width="28" height="51" fill="#bfe3bf" fill-opacity="0.55"/>
<rect x="287" y="0" width="55" height="51" fill="#bfe3bf" fill-opacity="0.55"/>
<rect x="354" y="0" width="71" height="51" fill="#bfe3bf" fill-opacity="0.55"/>
<rect x="429" y="0" width="37" height="51" fill="#bfe3bf" fill-opacity="0.55"/>
<rect x="470" y="0" width="42" height="21" fill="#bfe3bf" fill-opacity="0.55"/>
<rect x="470" y="25" width="42" height="58" fill="#bfe3bf" fill-opacity="0.55"/>
<rect x="0" y="55" width="64" height="63" fill="#bfe3bf" fill-opacity="0.55"/>
<rect x="72" y="55" width="70" height="30" fill="#bfe3bf" fill-opacity="0.55"/>
<rect x="146" y="55" width="29" height="30" fill="#bfe3bf" fill-opacity="0.55"/>
<rect x="179" y="55" width="64" height="30" fill="#bfe3bf" fill-opacity="0.55"/>
<rect x="255" y="55" width="28" height="28" fill="#bfe3bf" fill-opacity="0.55"/>
<rect x="287" y="55" width="55" height="28" fill="#bfe3bf" fill-opacity="0.55"/>
<rect x="354" y="55" width="43" height="28" fill="#bfe3bf" fill-opacity="0.55"/>
<rect x="401" y="55" width="24" height="28" fill="#bfe3bf" fill-opacity="0.55"/>
<rect x="429" y="55" width="37" height="28" fill="#bfe3bf" fill-opacity="0.55"/>
<rect x="72" y="89" width="24" height="84" fill="#bfe3bf" fill-opacity="0.55"/>
<rect x="100" y="89" width="75" height="37" fill="#bfe3bf" fill-opacity="0.55"/>
<rect x="179" y="89" width="30" height="35" fill="#bcd9f7" fill-opacity="0.55"/>
<rect x="217" y="89" width="26" height="35" fill="#bcd9f7" fill-opacity="0.55"/>
<rect x="255" y="91" width="26" height="33" fill="#bcd9f7" fill-opacity="0.55"/>
<rect x="289" y="91" width="53" height="33" fill="#bcd9f7" fill-opacity="0.55"/>
<rect x="354" y="91" width="43" height="33" fill="#bcd9f7" fill-opacity="0.55"/>
<rect x="401" y="91" width="65" height="35" fill="#bfe3bf" fill-opacity="0.55"/>
<rect x="470" y="91" width="42" height="35" fill="#bfe3bf" fill-opacity="0.55"/>
<rect x="0" y="122" width="64" height="51" fill="#f2cf9e" fill-opacity="0.55"/>
<rect x="100" y="130" width="75" height="43" fill="#bfe3bf" fill-opacity="0.55"/>
<rect x="401" y="130" width="65" height="43" fill="#bfe3bf" fill-opacity="0.55"/>
<rect x="470" y="130" width="42" height="43" fill="#bfe3bf" fill-opacity="0.55"/>
<rect x="179" y="132" width="30" height="41" fill="#bcd9f7" fill-opacity="0.55"/>
<rect x="217" y="132" width="26" height="41" fill="#bcd9f7" fill-opacity="0.55"/>
<rect x="255" y="132" width="26" height="41" fill="#bcd9f7" fill-opacity="0.55"/>
<rect x="289" y="132" width="22" height="41" fill="#bcd9f7" fill-opacity="0.55"/>
<rect x="319" y="132" width="23" height="41" fill="#bcd9f7" fill-opacity="0.55"/>
<rect x="354" y="132" width="43" height="41" fill="#bcd9f7" fill-opacity="0.55"/>
<rect x="0" y="185" width="66" height="52" fill="#f2cf9e" fill-opacity="0.55"/>
<rect x="70" y="185" width="26" height="52" fill="#bfe3bf" fill-opacity="0.55"/>
<rect x="100" y="185" width="73" height="52" fill="#bfe3bf" fill-opacity="0.55"/>
<rect x="181" y="185" width="30" height="52" fill="#bfe3bf" fill-opacity="0.55"/>
<rect x="215" y="185" width="28" height="52" fill="#bfe3bf" fill-opacity="0.55"/>
<rect x="255" y="185" width="26" height="19" fill="#bcd9f7" fill-opacity="0.55"/>
<rect x="289" y="185" width="22" height="19" fill="#bcd9f7" fill-opacity="0.55"/>
<rect x="319" y="185" width="23" height="19" fill="#bcd9f7" fill-opacity="0.55"/>
<rect x="354" y="185" width="43" height="52" fill="#bcd9f7" fill-opacity="0.55"/>
<rect x="401" y="185" width="63" height="52" fill="#bfe3bf" fill-opacity="0.55"/>
<rect x="472" y="185" width="40" height="52" fill="#bfe3bf" fill-opacity="0.55"/>
<rect x="255" y="212" width="26" height="25" fill="#bcd9f7" fill-opacity="0.55"/>
<rect x="289" y="212" width="22" height="25" fill="#bcd9f7" fill-opacity="0.55"/>
<rect x="319" y="212" width="23" height="25" fill="#bcd9f7" fill-opacity="0.55"/>
<rect x="0" y="249" width="66" height="67" fill="#f2cf9e" fill-opacity="0.55"/>
<rect x="70" y="249" width="59" height="103" fill="#f2cf9e" fill-opacity="0.55"/>
<rect x="133" y="249" width="42" height="103" fill="#f2cf9e" fill-opacity="0.55"/>
<rect x="179" y="249" width="30" height="36" fill="#bfe3bf" fill-opacity="0.55"/>
<rect x="217" y="249" width="26" height="34" fill="#bcd9f7" fill-opacity="0.55"/>
<rect x="255" y="249" width="26" height="34" fill="#bcd9f7" fill-opacity="0.55"/>
<rect x="289" y="249" width="22" height="34" fill="#bcd9f7" fill-opacity="0.55"/>
<rect x="319" y="249" width="25" height="34" fill="#bcd9f7" fill-opacity="0.55"/>
<rect x="352" y="249" width="43" height="34" fill="#bcd9f7" fill-opacity="0.55"/>
<rect x="403" y="249" width="63" height="62" fill="#bfe3bf" fill-opacity="0.55"/>
<rect x="470" y="249" width="42" height="62" fill="#bfe3bf" fill-opacity="0.55"/>
<rect x="179" y="289" width="30" height="24" fill="#bfe3bf" fill-opacity="0.55"/>
<rect x="217" y="291" width="26" height="22" fill="#ddc2ef" fill-opacity="0.55"/>
<rect x="255" y="291" width="56" height="20" fill="#bcd9f7" fill-opacity="0.55"/>
<rect x="319" y="291" width="25" height="20" fill="#bcd9f7" fill-opacity="0.55"/>
<rect x="352" y="291" width="43" height="20" fill="#bcd9f7" fill-opacity="0.55"/>
<rect x="179" y="317" width="64" height="64" fill="#ddc2ef" fill-opacity="0.55"/>
<rect x="255" y="319" width="91" height="117" fill="#bfe3bf" fill-opacity="0.55"/>
<rect x="350" y="319" width="47" height="117" fill="#bfe3bf" fill-opacity="0.55"/>
<rect x="401" y="319" width="65" height="48" fill="#bfe3bf" fill-opacity="0.55"/>
<rect x="470" y="319" width="42" height="48" fill="#bfe3bf" fill-opacity="0.55"/>
<rect x="0" y="320" width="66" height="32" fill="#f2cf9e" fill-opacity="0.55"/>
<rect x="0" y="356" width="66" height="78" fill="#f2cf9e" fill-opacity="0.55"/>
<rect x="70" y="356" width="59" height="78" fill="#f2cf9e" fill-opacity="0.55"/>
<rect x="133" y="356" width="42" height="78" fill="#bfe3bf" fill-opacity="0.55"/>
<rect x="401" y="371" width="65" height="65" fill="#bfe3bf" fill-opacity="0.55"/>
<rect x="470" y="371" width="42" height="65" fill="#bfe3bf" fill-opacity="0.55"/>
<rect x="179" y="385" width="64" height="49" fill="#bfe3bf" fill-opacity="0.55"/>
<rect x="255" y="440" width="27" height="72" fill="#ddc2ef" fill-opacity="0.55"/>
<rect x="286" y="440" width="60" height="72" fill="#bfe3bf" fill-opacity="0.55"/>
<rect x="350" y="440" width="47" height="72" fill="#ddc2ef" fill-opacity="0.55"/>
<rect x="401" y="440" width="65" height="37" fill="#bfe3bf" fill-opacity="0.55"/>
<rect x="470" y="440" width="42" height="37" fill="#bfe3bf" fill-opacity="0.55"/>
<rect x="0" y="442" width="66" height="70" fill="#bfe3bf" fill-opacity="0.55"/>
<rect x="70" y="442" width="59" height="70" fill="#ddc2ef" fill-opacity="0.55"/>
<rect x="133" y="442" width="42" height="70" fill="#bfe3bf" fill-opacity="0.55"/>
<rect x="179" y="442" width="64" height="70" fill="#bfe3bf" fill-opacity="0.55"/>
<rect x="401" y="481" width="65" height="31" fill="#ddc2ef" fill-opacity="0.55"/>
<rect x="470" y="481" width="42" height="31" fill="#bfe3bf" fill-opacity="0.55"/>
<rect x="64" y="0" width="8" height="53" fill="#6e6e6e"/>
<rect x="64" y="53" width="8" height="34" fill="#6e6e6e"/>
<rect x="64" y="87" width="8" height="33" fill="#6e6e6e"/>
<rect x="64" y="120" width="8" height="59" fill="#6e6e6e"/>
<rect x="66" y="179" width="4" height="64" fill="#a6a6a6"/>
<rect x="66" y="243" width="4" height="75" fill="#a6a6a6"/>
<rect x="66" y="318" width="4" height="36" fill="#a6a6a6"/>
<rect x="66" y="354" width="4" height="84" fill="#a6a6a6"/>
<rect x="66" y="438" width="4" height="74" fill="#a6a6a6"/>
<rect x="96" y="87" width="4" height="41" fill="#a6a6a6"/>
<rect x="96" y="128" width="4" height="51" fill="#a6a6a6"/>
<rect x="96" y="179" width="4" height="64" fill="#a6a6a6"/>
<rect x="129" y="243" width="4" height="111" fill="#a6a6a6"/>
<rect x="129" y="354" width="4" height="84" fill="#a6a6a6"/>
<rect x="129" y="438" width="4" height="74" fill="#a6a6a6"/>
<rect x="142" y="0" width="4" height="53" fill="#a6a6a6"/>
<rect x="142" y="53" width="4" height="34" fill="#a6a6a6"/>
<rect x="175" y="0" width="4" height="53" fill="#a6a6a6"/>
<rect x="175" y="53" width="4" height="34" fill="#a6a6a6"/>
<rect x="175" y="87" width="4" height="41" fill="#a6a6a6"/>
<rect x="175" y="128" width="4" height="51" fill="#a6a6a6"/>
<rect x="173" y="179" width="8" height="64" fill="#6e6e6e"/>
<rect x="175" y="243" width="4" height="44" fill="#a6a6a6"/>
<rect x="175" y="287" width="4" height="28" fill="#a6a6a6"/>
<rect x="175" y="315" width="4" height="39" fill="#a6a6a6"/>
<rect x="175" y="354" width="4" height="29" fill="#a6a6a6"/>
<rect x="175" y="383" width="4" height="55" fill="#a6a6a6"/>
<rect x="175" y="438" width="4" height="74" fill="#a6a6a6"/>
<rect x="209" y="87" width="8" height="41" fill="#6e6e6e"/>
<rect x="209" y="128" width="8" height="51" fill="#6e6e6e"/>
<rect x="211" y="179" width="4" height="64" fill="#a6a6a6"/>
<rect x="209" y="243" width="8" height="44" fill="#6e6e6e"/>
<rect x="209" y="287" width="8" height="28" fill="#6e6e6e"/>
<rect x="243" y="0" width="12" height="53" fill="#2b2b2b"/>
<rect x="243" y="53" width="12" height="34" fill="#2b2b2b"/>
<rect x="243" y="87" width="12" height="41" fill="#2b2b2b"/>
<rect x="243" y="128" width="12" height="51" fill="#2b2b2b"/>
<rect x="243" y="179" width="12" height="29" fill="#2b2b2b"/>
<rect x="243" y="208" width="12" height="35" fill="#2b2b2b"/>
<rect x="243" y="243" width="12" height="44" fill="#2b2b2b"/>
<rect x="243" y="287" width="12" height="28" fill="#2b2b2b"/>
<rect x="243" y="315" width="12" height="68" fill="#2b2b2b"/>
<rect x="243" y="383" width="12" height="55" fill="#2b2b2b"/>
<rect x="243" y="438" width="12" height="74" fill="#2b2b2b"/>
<rect x="282" y="438" width="4" height="74" fill="#a6a6a6"/>
<rect x="283" y="0" width="4" height="53" fill="#a6a6a6"/>
<rect x="283" y="53" width="4" height="34" fill="#a6a6a6"/>
<rect x="281" y="87" width="8" height="41" fill="#6e6e6e"/>
<rect x="281" y="128" width="8" height="51" fill="#6e6e6e"/>
<rect x="281" y="179" width="8" height="29" fill="#6e6e6e"/>
<rect x="281" y="208" width="8" height="35" fill="#6e6e6e"/>
<rect x="281" y="243" width="8" height="44" fill="#6e6e6e"/>
<rect x="311" y="128" width="8" height="51" fill="#6e6e6e"/>
<rect x="311" y="179" width="8" height="29" fill="#6e6e6e"/>
<rect x="311" y="208" width="8" height="35" fill="#6e6e6e"/>
<rect x="311" y="243" width="8" height="44" fill="#6e6e6e"/>
<rect x="311" y="287" width="8" height="28" fill="#6e6e6e"/>
<rect x="342" y="0" width="12" height="53" fill="#2b2b2b"/>
<rect x="342" y="53" width="12" height="34" fill="#2b2b2b"/>
<rect x="342" y="87" width="12" height="41" fill="#2b2b2b"/>
<rect x="342" y="128" width="12" height="51" fill="#2b2b2b"/>
<rect x="342" y="179" width="12" height="29" fill="#2b2b2b"/>
<rect x="342" y="208" width="12" height="35" fill="#2b2b2b"/>
<rect x="344" y="243" width="8" height="44" fill="#6e6e6e"/>
<rect x="344" y="287" width="8" height="28" fill="#6e6e6e"/>
<rect x="346" y="315" width="4" height="123" fill="#a6a6a6"/>
<rect x="346" y="438" width="4" height="74" fill="#a6a6a6"/>
<rect x="397" y="53" width="4" height="34" fill="#a6a6a6"/>
<rect x="397" y="87" width="4" height="41" fill="#a6a6a6"/>
<rect x="397" y="128" width="4" height="51" fill="#a6a6a6"/>
<rect x="397" y="179" width="4" height="64" fill="#a6a6a6"/>
<rect x="395" y="243" width="8" height="44" fill="#6e6e6e"/>
<rect x="395" y="287" width="8" height="28" fill="#6e6e6e"/>
<rect x="397" y="315" width="4" height="54" fill="#a6a6a6"/>
<rect x="397" y="369" width="4" height="69" fill="#a6a6a6"/>
<rect x="397" y="438" width="4" height="41" fill="#a6a6a6"/>
<rect x="397" y="479" width="4" height="33" fill="#a6a6a6"/>
<rect x="425" y="0" width="4" height="53" fill="#a6a6a6"/>
<rect x="425" y="53" width="4" height="34" fill="#a6a6a6"/>
<rect x="466" y="0" width="4" height="23" fill="#a6a6a6"/>
<rect x="466" y="23" width="4" height="30" fill="#a6a6a6"/>
<rect x="466" y="53" width="4" height="34" fill="#a6a6a6"/>
<rect x="466" y="87" width="4" height="41" fill="#a6a6a6"/>
<rect x="466" y="128" width="4" height="51" fill="#a6a6a6"/>
<rect x="464" y="179" width="8" height="64" fill="#6e6e6e"/>
<rect x="466" y="243" width="4" height="72" fill="#a6a6a6"/>
<rect x="466" y="315" width="4" height="54" fill="#a6a6a6"/>
<rect x="466" y="369" width="4" height="69" fill="#a6a6a6"/>
<rect x="466" y="438" width="4" height="41" fill="#a6a6a6"/>
<rect x="466" y="479" width="4" height="33" fill="#a6a6a6"/>
<rect x="468" y="21" width="44" height="4" fill="#a6a6a6"/>
<rect x="0" y="51" width="68" height="4" fill="#a6a6a6"/>
<rect x="68" y="51" width="76" height="4" fill="#a6a6a6"/>
<rect x="144" y="51" width="33" height="4" fill="#a6a6a6"/>
<rect x="177" y="51" width="72" height="4" fill="#a6a6a6"/>
<rect x="249" y="51" width="36" height="4" fill="#a6a6a6"/>
<rect x="285" y="51" width="63" height="4" fill="#a6a6a6"/>
<rect x="348" y="51" width="51" height="4" fill="#a6a6a6"/>
<rect x="399" y="51" width="28" height="4" fill="#a6a6a6"/>
<rect x="427" y="51" width="41" height="4" fill="#a6a6a6"/>
<rect x="68" y="85" width="30" height="4" fill="#a6a6a6"/>
<rect x="98" y="85" width="46" height="4" fill="#a6a6a6"/>
<rect x="144" y="85" width="33" height="4" fill="#a6a6a6"/>
<rect x="177" y="85" width="36" height="4" fill="#a6a6a6"/>
<rect x="213" y="85" width="36" height="4" fill="#a6a6a6"/>
<rect x="249" y="83" width="36" height="8" fill="#6e6e6e"/>
<rect x="285" y="83" width="63" height="8" fill="#6e6e6e"/>
<rect x="348" y="83" width="51" height="8" fill="#6e6e6e"/>
<rect x="399" y="83" width="28" height="8" fill="#6e6e6e"/>
<rect x="427" y="83" width="41" height="8" fill="#6e6e6e"/>
<rect x="468" y="83" width="44" height="8" fill="#6e6e6e"/>
<rect x="0" y="118" width="68" height="4" fill="#a6a6a6"/>
<rect x="98" y="126" width="79" height="4" fill="#a6a6a6"/>
<rect x="177" y="124" width="36" height="8" fill="#6e6e6e"/>
<rect x="213" y="124" width="36" height="8" fill="#6e6e6e"/>
<rect x="249" y="124" width="36" height="8" fill="#6e6e6e"/>
<rect x="285" y="124" width="30" height="8" fill="#6e6e6e"/>
<rect x="315" y="124" width="33" height="8" fill="#6e6e6e"/>
<rect x="348" y="124" width="51" height="8" fill="#6e6e6e"/>
<rect x="399" y="126" width="69" height="4" fill="#a6a6a6"/>
<rect x="468" y="126" width="44" height="4" fill="#a6a6a6"/>
<rect x="0" y="173" width="68" height="12" fill="#2b2b2b"/>
<rect x="68" y="173" width="30" height="12" fill="#2b2b2b"/>
<rect x="98" y="173" width="79" height="12" fill="#2b2b2b"/>
<rect x="177" y="173" width="36" height="12" fill="#2b2b2b"/>
<rect x="213" y="173" width="36" height="12" fill="#2b2b2b"/>
<rect x="249" y="173" width="36" height="12" fill="#2b2b2b"/>
<rect x="285" y="173" width="30" height="12" fill="#2b2b2b"/>
<rect x="315" y="173" width="33" height="12" fill="#2b2b2b"/>
<rect x="348" y="173" width="51" height="12" fill="#2b2b2b"/>
<rect x="399" y="173" width="69" height="12" fill="#2b2b2b"/>
<rect x="468" y="173" width="44" height="12" fill="#2b2b2b"/>
<rect x="249" y="204" width="36" height="8" fill="#6e6e6e"/>
<rect x="285" y="204" width="30" height="8" fill="#6e6e6e"/>
<rect x="315" y="204" width="33" height="8" fill="#6e6e6e"/>
<rect x="0" y="237" width="68" height="12" fill="#2b2b2b"/>
<rect x="68" y="237" width="30" height="12" fill="#2b2b2b"/>
<rect x="98" y="237" width="33" height="12" fill="#2b2b2b"/>
<rect x="131" y="237" width="46" height="12" fill="#2b2b2b"/>
<rect x="177" y="237" width="36" height="12" fill="#2b2b2b"/>
<rect x="213" y="237" width="36" height="12" fill="#2b2b2b"/>
<rect x="249" y="237" width="36" height="12" fill="#2b2b2b"/>
<rect x="285" y="237" width="30" height="12" fill="#2b2b2b"/>
<rect x="315" y="237" width="33" height="12" fill="#2b2b2b"/>
<rect x="348" y="237" width="51" height="12" fill="#2b2b2b"/>
<rect x="399" y="237" width="69" height="12" fill="#2b2b2b"/>
<rect x="468" y="237" width="44" height="12" fill="#2b2b2b"/>
<rect x="177" y="285" width="36" height="4" fill="#a6a6a6"/>
<rect x="213" y="283" width="36" height="8" fill="#6e6e6e"/>
<rect x="249" y="283" width="36" height="8" fill="#6e6e6e"/>
<rect x="285" y="283" width="30" height="8" fill="#6e6e6e"/>
<rect x="315" y="283" width="33" height="8" fill="#6e6e6e"/>
<rect x="348" y="283" width="51" height="8" fill="#6e6e6e"/>
<rect x="177" y="313" width="36" height="4" fill="#a6a6a6"/>
<rect x="213" y="313" width="36" height="4" fill="#a6a6a6"/>
<rect x="249" y="311" width="66" height="8" fill="#6e6e6e"/>
<rect x="315" y="311" width="33" height="8" fill="#6e6e6e"/>
<rect x="348" y="311" width="51" height="8" fill="#6e6e6e"/>
<rect x="399" y="311" width="69" height="8" fill="#6e6e6e"/>
<rect x="468" y="311" width="44" height="8" fill="#6e6e6e"/>
<rect x="0" y="316" width="68" height="4" fill="#a6a6a6"/>
<rect x="0" y="352" width="68" height="4" fill="#a6a6a6"/>
<rect x="68" y="352" width="63" height="4" fill="#a6a6a6"/>
<rect x="131" y="352" width="46" height="4" fill="#a6a6a6"/>
<rect x="399" y="367" width="69" height="4" fill="#a6a6a6"/>
<rect x="468" y="367" width="44" height="4" fill="#a6a6a6"/>
<rect x="177" y="381" width="72" height="4" fill="#a6a6a6"/>
<rect x="0" y="434" width="68" height="8" fill="#6e6e6e"/>
<rect x="68" y="434" width="63" height="8" fill="#6e6e6e"/>
<rect x="131" y="434" width="46" height="8" fill="#6e6e6e"/>
<rect x="177" y="434" width="72" height="8" fill="#6e6e6e"/>
<rect x="249" y="436" width="35" height="4" fill="#a6a6a6"/>
<rect x="284" y="436" width="64" height="4" fill="#a6a6a6"/>
<rect x="348" y="436" width="51" height="4" fill="#a6a6a6"/>
<rect x="399" y="436" width="69" height="4" fill="#a6a6a6"/>
<rect x="468" y="436" width="44" height="4" fill="#a6a6a6"/>
<rect x="399" y="477" width="69" height="4" fill="#a6a6a6"/>
<rect x="468" y="477" width="44" height="4" fill="#a6a6a6"/>
<rect x="276" y="189" width="40" height="22" fill="none" stroke="#d81b60" stroke-width="1"/>
<text x="276" y="187" font-family="sans-serif" font-size="6" fill="#d81b60">core</text>
<rect x="472" y="490" width="40" height="22" fill="none" stroke="#1e88e5" stroke-width="1"/>
<text x="472" y="488" font-family="sans-serif" font-size="6" fill="#1e88e5">periphery</text>
<rect x="8" y="516" width="16" height="16" fill="#bfe3bf"/>
<text x="28" y="528" font-family="sans-serif" font-size="12" fill="#111">residential</text>
<rect x="148" y="516" width="16" height="16" fill="#bcd9f7"/>
<text x="168" y="528" font-family="sans-serif" font-size="12" fill="#111">commercial</text>
<rect x="288" y="516" width="16" height="16" fill="#f2cf9e"/>
<text x="308" y="528" font-family="sans-serif" font-size="12" fill="#111">industrial</text>
<rect x="428" y="516" width="16" height="16" fill="#ddc2ef"/>
<text x="448" y="528" font-family="sans-serif" font-size="12" fill="#111">institutional</text>
<rect x="8" y="544" width="16" height="16" fill="#2b2b2b"/>
<text x="28" y="556" font-family="sans-serif" font-size="12" fill="#111">arterial</text>
<rect x="118" y="544" width="16" height="16" fill="#6e6e6e"/>
<text x="138" y="556" font-family="sans-serif" font-size="12" fill="#111">street</text>
<rect x="228" y="544" width="16" height="16" fill="#a6a6a6"/>
<text x="248" y="556" font-family="sans-serif" font-size="12" fill="#111">lane</text>
</svg>
