<svg xmlns="http://www.w3.org/2000/svg" width="512" height="568" viewBox="0 0 512 568">
<rect x="0" y="0" width="512" height="568" fill="#ffffff"/>
<rect x="0" y="0" width="45" height="66" fill="#bfe3bf" fill-opacity="0.55"/>
<rect x="49" y="0" width="58" height="16" fill="#bfe3bf" fill-opacity="0.55"/>
<rect x="119" y="0" width="29" height="16" fill="#bfe3bf" fill-opacity="0.55"/>
<rect x="152" y="0" width="30" height="16" fill="#bfe3bf" fill-opacity="0.55"/>
<rect x="186" y="0" width="34" height="16" fill="#bfe3bf" fill-opacity="0.55"/>
<rect x="228" y="0" width="52" height="16" fill="#bfe3bf" fill-opacity="0.55"/>
<rect x="284" y="0" width="70" height="68" fill="#bfe3bf" fill-opacity="0.55"/>
<rect x="358" y="0" width="47" height="33" fill="#bfe3bf" fill-opacity="0.55"/>
<rect x="417" y="0" width="95" height="31" fill="#bfe3bf" fill-opacity="0.55"/>
<rect x="49" y="20" width="24" height="26" fill="#bfe3bf" fill-opacity="0.55"/>
<rect x="77" y="20" width="30" height="46" fill="#bfe3bf" fill-opacity="0.55"/>
<rect x="119" y="20" width="29" height="46" fill="#bfe3bf" fill-opacity="0.55"/>
<rect x="152" y="20" width="30" height="24" fill="#bfe3bf" fill-opacity="0.55"/>
<rect x="186" y="20" width="34" height="46" fill="#bfe3bf" fill-opacity="0.55"/>
<rect x="228" y="20" width="24" height="48" fill="#bfe3bf" fill-opacity="0.55"/>
<rect x="256" y="20" width="24" height="28" fill="#bfe3bf" fill-opacity="0.55"/>
<rect x="358" y="37" width="47" height="94" fill="#bfe3bf" fill-opacity="0.55"/>
<rect x="417" y="39" width="95" height="92" fill="#bfe3bf" fill-opacity="0.55"/>
<rect x="152" y="48" width="30" height="18" fill="#bfe3bf" fill-opacity="0.55"/>
<rect x="49" y="50" width="24" height="16" fill="#bfe3bf" fill-opacity="0.55"/>
<rect x="256" y="52" width="24" height="16" fill="#bfe3bf" fill-opacity="0.55"/>
<rect x="228" y="72" width="22" height="35" fill="#bcd9f7" fill-opacity="0.55"/>
<rect x="258" y="72" width="22" height="35" fill="#bcd9f7" fill-opacity="0.55"/>
<rect x="284" y="72" width="70" height="59" fill="#bfe3bf" fill-opacity="0.55"/>
<rect x="0" y="74" width="45" height="57" fill="#bfe3bf" fill-opacity="0.55"/>
<rect x="49" y="74" width="24" height="16" fill="#bfe3bf" fill-opacity="0.55"/>
<rect x="77" y="74" width="30" height="57" fill="#ddc2ef" fill-opacity="0.55"/>
<rect x="119" y="74" width="27" height="31" fill="#bcd9f7" fill-opacity="0.55"/>
<rect x="154" y="74" width="26" height="57" fill="#bcd9f7" fill-opacity="0.55"/>
<rect x="188" y="74" width="32" height="57" fill="#bcd9f7" fill-opacity="0.55"/>
<rect x="49" y="94" width="24" height="37" fill="#bfe3bf" fill-opacity="0.55"/>
<rect x="119" y="113" width="27" height="18" fill="#bcd9f7" fill-opacity="0.55"/>
<rect x="228" y="115" width="22" height="16" fill="#bcd9f7" fill-opacity="0.55"/>
<rect x="258" y="115" width="22" height="16" fill="#bcd9f7" fill-opacity="0.55"/>
<rect x="0" y="143" width="43" height="64" fill="#bfe3bf" fill-opacity="0.55"/>
<rect x="51" y="143" width="20" height="42" fill="#bfe3bf" fill-opacity="0.55"/>
<rect x="79" y="143" width="30" height="40" fill="#bcd9f7" fill-opacity="0.55"/>
<rect x="117" y="143" width="29" height="64" fill="#bcd9f7" fill-opacity="0.55"/>
<rect x="154" y="143" width="26" height="27" fill="#bcd9f7" fill-opacity="0.55"/>
<rect x="188" y="143" width="32" height="27" fill="#bcd9f7" fill-opacity="0.55"/>
<rect x="228" y="143" width="22" height="27" fill="#bcd9f7" fill-opacity="0.55"/>
<rect x="258" y="143" width="22" height="29" fill="#bcd9f7" fill-opacity="0.55"/>
<rect x="284" y="143" width="24" height="29" fill="#bfe3bf" fill-opacity="0.55"/>
<rect x="312" y="143" width="42" height="29" fill="#bfe3bf" fill-opacity="0.55"/>
<rect x="358" y="143" width="47" height="29" fill="#bfe3bf" fill-opacity="0.55"/>
<rect x="417" y="143" width="95" height="106" fill="#bfe3bf" fill-opacity="0.55"/>
<rect x="258" y="176" width="22" height="31" fill="#bcd9f7" fill-opacity="0.55"/>
<rect x="284" y="176" width="24" height="31" fill="#bfe3bf" fill-opacity="0.55"/>
<rect x="312" y="176" width="42" height="75" fill="#bfe3bf" fill-opacity="0.55"/>
<rect x="358" y="176" width="47" height="75" fill="#bfe3bf" fill-opacity="0.55"/>
<rect x="154" y="178" width="26" height="27" fill="#bcd9f7" fill-opacity="0.55"/>
<rect x="188" y="178" width="32" height="27" fill="#bcd9f7" fill-opacity="0.55"/>
<rect x="228" y="178" width="22" height="27" fill="#bcd9f7" fill-opacity="0.55"/>
<rect x="51" y="189" width="20" height="18" fill="#bfe3bf" fill-opacity="0.55"/>
<rect x="79" y="191" width="30" height="16" fill="#bcd9f7" fill-opacity="0.55"/>
<rect x="0" y="211" width="45" height="40" fill="#bfe3bf" fill-opacity="0.55"/>
<rect x="49" y="211" width="24" height="40" fill="#bfe3bf" fill-opacity="0.55"/>
<rect x="77" y="211" width="32" height="40" fill="#bcd9f7" fill-opacity="0.55"/>
<rect x="117" y="211" width="29" height="40" fill="#bcd9f7" fill-opacity="0.55"/>
<rect x="258" y="211" width="22" height="40" fill="#bcd9f7" fill-opacity="0.55"/>
<rect x="284" y="211" width="24" height="40" fill="#bfe3bf" fill-opacity="0.55"/>
<rect x="154" y="213" width="26" height="38" fill="#bcd9f7" fill-opacity="0.55"/>
<rect x="188" y="213" width="32" height="38" fill="#bcd9f7" fill-opacity="0.55"/>
<rect x="228" y="213" width="22" height="38" fill="#bcd9f7" fill-opacity="0.55"/>
<rect x="0" y="255" width="73" height="33" fill="#bfe3bf" fill-opacity="0.55"/>
<rect x="77" y="255" width="34" height="33" fill="#bfe3bf" fill-opacity="0.55"/>
<rect x="115" y="255" width="31" height="33" fill="#bcd9f7" fill-opacity="0.55"/>
<rect x="154" y="255" width="26" height="31" fill="#bcd9f7" fill-opacity="0.55"/>
<rect x="188" y="255" width="32" height="31" fill="#bcd9f7" fill-opacity="0.55"/>
<rect x="228" y="255" width="22" height="61" fill="#bcd9f7" fill-opacity="0.55"/>
<rect x="258" y="255" width="22" height="35" fill="#bcd9f7" fill-opacity="0.55"/>
<rect x="284" y="255" width="24" height="35" fill="#bfe3bf" fill-opacity="0.55"/>
<rect x="312" y="255" width="42" height="92" fill="#bfe3bf" fill-opacity="0.55"/>
<rect x="358" y="255" width="47" height="92" fill="#bfe3bf" fill-opacity="0.55"/>
<rect x="417" y="257" width="95" height="44" fill="#bfe3bf" fill-opacity="0.55"/>
<rect x="0" y="292" width="32" height="26" fill="#f2cf9e" fill-opacity="0.55"/>
<rect x="36" y="292" width="37" height="26" fill="#bfe3bf" fill-opacity="0.55"/>
<rect x="77" y="292" width="34" height="26" fill="#ddc2ef" fill-opacity="0.55"/>
<rect x="115" y="292" width="31" height="26" fill="#ddc2ef" fill-opacity="0.55"/>
<rect x="154" y="294" width="26" height="22" fill="#ddc2ef" fill-opacity="0.55"/>
<rect x="188" y="294" width="32" height="22" fill="#bcd9f7" fill-opacity="0.55"/>
<rect x="258" y="294" width="22" height="22" fill="#bcd9f7" fill-opacity="0.55"/>
<rect x="284" y="294" width="24" height="22" fill="#bfe3bf" fill-opacity="0.55"/>
<rect x="417" y="305" width="95" height="75" fill="#bfe3bf" fill-opacity="0.55"/>
<rect x="0" y="322" width="32" height="63" fill="#f2cf9e" fill-opacity="0.55"/>
<rect x="36" y="322" width="37" height="25" fill="#f2cf9e" fill-opacity="0.55"/>
<rect x="77" y="322" width="34" height="25" fill="#ddc2ef" fill-opacity="0.55"/>
<rect x="115" y="322" width="31" height="25" fill="#ddc2ef" fill-opacity="0.55"/>
<rect x="154" y="324" width="28" height="23" fill="#ddc2ef" fill-opacity="0.55"/>
<rect x="186" y="324" width="34" height="23" fill="#bcd9f7" fill-opacity="0.55"/>
<rect x="228" y="324" width="22" height="23" fill="#bcd9f7" fill-opacity="0.55"/>
<rect x="258" y="324" width="20" height="23" fill="#bcd9f7" fill-opacity="0.55"/>
<rect x="286" y="324" width="22" height="23" fill="#bfe3bf" fill-opacity="0.55"/>
<rect x="36" y="351" width="37" height="34" fill="#f2cf9e" fill-opacity="0.55"/>
<rect x="77" y="351" width="69" height="34" fill="#ddc2ef" fill-opacity="0.55"/>
<rect x="154" y="351" width="28" height="34" fill="#ddc2ef" fill-opacity="0.55"/>
<rect x="186" y="351" width="36" height="34" fill="#ddc2ef" fill-opacity="0.55"/>
<rect x="226" y="351" width="26" height="34" fill="#bcd9f7" fill-opacity="0.55"/>
<rect x="256" y="351" width="24" height="34" fill="#bfe3bf" fill-opacity="0.55"/>
<rect x="284" y="351" width="24" height="34" fill="#bfe3bf" fill-opacity="0.55"/>
<rect x="312" y="351" width="93" height="88" fill="#bfe3bf" fill-opacity="0.55"/>
<rect x="417" y="384" width="95" height="55" fill="#bfe3bf" fill-opacity="0.55"/>
<rect x="0" y="389" width="32" height="50" fill="#f2cf9e" fill-opacity="0.55"/>
<rect x="36" y="389" width="37" height="16" fill="#f2cf9e" fill-opacity="0.55"/>
<rect x="77" y="389" width="31" height="16" fill="#ddc2ef" fill-opacity="0.55"/>
<rect x="112" y="389" width="34" height="50" fill="#f2cf9e" fill-opacity="0.55"/>
<rect x="154" y="389" width="28" height="50" fill="#f2cf9e" fill-opacity="0.55"/>
<rect x="186" y="389" width="36" height="30" fill="#ddc2ef" fill-opacity="0.55"/>
<rect x="226" y="389" width="26" height="30" fill="#ddc2ef" fill-opacity="0.55"/>
<rect x="256" y="389" width="24" height="30" fill="#ddc2ef" fill-opacity="0.55"/>
<rect x="284" y="389" width="24" height="50" fill="#bfe3bf" fill-opacity="0.55"/>
<rect x="36" y="409" width="37" height="30" fill="#f2cf9e" fill-opacity="0.55"/>
<rect x="77" y="409" width="31" height="30" fill="#f2cf9e" fill-opacity="0.55"/>
<rect x="186" y="423" width="36" height="16" fill="#f2cf9e" fill-opacity="0.55"/>
<rect x="226" y="423" width="26" height="16" fill="#ddc2ef" fill-opacity="0.55"/>
<rect x="256" y="423" width="24" height="16" fill="#ddc2ef" fill-opacity="0.55"/>
<rect x="0" y="443" width="32" height="69" fill="#f2cf9e" fill-opacity="0.55"/>
<rect x="36" y="443" width="110" height="69" fill="#f2cf9e" fill-opacity="0.55"/>
<rect x="154" y="443" width="98" height="69" fill="#f2cf9e" fill-opacity="0.55"/>
<rect x="256" y="443" width="24" height="36" fill="#f2cf9e" fill-opacity="0.55"/>
<rect x="284" y="443" width="24" height="36" fill="#bfe3bf" fill-opacity="0.55"/>
<rect x="312" y="443" width="93" height="69" fill="#bfe3bf" fill-opacity="0.55"/>
<rect x="417" y="443" width="95" height="69" fill="#bfe3bf" fill-opacity="0.55"/>
<rect x="256" y="483" width="24" height="29" fill="#f2cf9e" fill-opacity="0.55"/>
<rect x="284" y="483" width="24" height="29" fill="#bfe3bf" fill-opacity="0.55"/>
<rect x="32" y="290" width="4" height="30" fill="#a6a6a6"/>
<rect x="32" y="320" width="4" height="29" fill="#a6a6a6"/>
<rect x="32" y="349" width="4" height="38" fill="#a6a6a6"/>
<rect x="32" y="387" width="4" height="20" fill="#a6a6a6"/>
<rect x="32" y="407" width="4" height="34" fill="#a6a6a6"/>
<rect x="32" y="441" width="4" height="71" fill="#a6a6a6"/>
<rect x="45" y="0" width="4" height="18" fill="#a6a6a6"/>
<rect x="45" y="18" width="4" height="30" fill="#a6a6a6"/>
<rect x="45" y="48" width="4" height="22" fill="#a6a6a6"/>
<rect x="45" y="70" width="4" height="22" fill="#a6a6a6"/>
<rect x="45" y="92" width="4" height="45" fill="#a6a6a6"/>
<rect x="43" y="137" width="8" height="50" fill="#6e6e6e"/>
<rect x="43" y="187" width="8" height="22" fill="#6e6e6e"/>
<rect x="45" y="209" width="4" height="44" fill="#a6a6a6"/>
<rect x="73" y="18" width="4" height="30" fill="#a6a6a6"/>
<rect x="73" y="48" width="4" height="22" fill="#a6a6a6"/>
<rect x="73" y="70" width="4" height="22" fill="#a6a6a6"/>
<rect x="73" y="92" width="4" height="45" fill="#a6a6a6"/>
<rect x="71" y="137" width="8" height="50" fill="#6e6e6e"/>
<rect x="71" y="187" width="8" height="22" fill="#6e6e6e"/>
<rect x="73" y="209" width="4" height="44" fill="#a6a6a6"/>
<rect x="73" y="253" width="4" height="37" fill="#a6a6a6"/>
<rect x="73" y="290" width="4" height="30" fill="#a6a6a6"/>
<rect x="73" y="320" width="4" height="29" fill="#a6a6a6"/>
<rect x="73" y="349" width="4" height="38" fill="#a6a6a6"/>
<rect x="73" y="387" width="4" height="20" fill="#a6a6a6"/>
<rect x="73" y="407" width="4" height="34" fill="#a6a6a6"/>
<rect x="108" y="387" width="4" height="20" fill="#a6a6a6"/>
<rect x="108" y="407" width="4" height="34" fill="#a6a6a6"/>
<rect x="107" y="0" width="12" height="18" fill="#2b2b2b"/>
<rect x="107" y="18" width="12" height="52" fill="#2b2b2b"/>
<rect x="107" y="70" width="12" height="39" fill="#2b2b2b"/>
<rect x="107" y="109" width="12" height="28" fill="#2b2b2b"/>
<rect x="109" y="137" width="8" height="50" fill="#6e6e6e"/>
<rect x="109" y="187" width="8" height="22" fill="#6e6e6e"/>
<rect x="109" y="209" width="8" height="44" fill="#6e6e6e"/>
<rect x="111" y="253" width="4" height="37" fill="#a6a6a6"/>
<rect x="111" y="290" width="4" height="30" fill="#a6a6a6"/>
<rect x="111" y="320" width="4" height="29" fill="#a6a6a6"/>
<rect x="148" y="0" width="4" height="18" fill="#a6a6a6"/>
<rect x="148" y="18" width="4" height="28" fill="#a6a6a6"/>
<rect x="148" y="46" width="4" height="24" fill="#a6a6a6"/>
<rect x="146" y="70" width="8" height="39" fill="#6e6e6e"/>
<rect x="146" y="109" width="8" height="28" fill="#6e6e6e"/>
<rect x="146" y="137" width="8" height="37" fill="#6e6e6e"/>
<rect x="146" y="174" width="8" height="35" fill="#6e6e6e"/>
<rect x="146" y="209" width="8" height="44" fill="#6e6e6e"/>
<rect x="146" y="253" width="8" height="37" fill="#6e6e6e"/>
<rect x="146" y="290" width="8" height="30" fill="#6e6e6e"/>
<rect x="146" y="320" width="8" height="29" fill="#6e6e6e"/>
<rect x="146" y="349" width="8" height="38" fill="#6e6e6e"/>
<rect x="146" y="387" width="8" height="54" fill="#6e6e6e"/>
<rect x="146" y="441" width="8" height="71" fill="#6e6e6e"/>
<rect x="182" y="0" width="4" height="18" fill="#a6a6a6"/>
<rect x="182" y="18" width="4" height="28" fill="#a6a6a6"/>
<rect x="182" y="46" width="4" height="24" fill="#a6a6a6"/>
<rect x="180" y="70" width="8" height="67" fill="#6e6e6e"/>
<rect x="180" y="137" width="8" height="37" fill="#6e6e6e"/>
<rect x="180" y="174" width="8" height="35" fill="#6e6e6e"/>
<rect x="180" y="209" width="8" height="44" fill="#6e6e6e"/>
<rect x="180" y="253" width="8" height="37" fill="#6e6e6e"/>
<rect x="180" y="290" width="8" height="30" fill="#6e6e6e"/>
<rect x="182" y="320" width="4" height="29" fill="#a6a6a6"/>
<rect x="182" y="349" width="4" height="38" fill="#a6a6a6"/>
<rect x="182" y="387" width="4" height="34" fill="#a6a6a6"/>
<rect x="182" y="421" width="4" height="20" fill="#a6a6a6"/>
<rect x="220" y="0" width="8" height="18" fill="#6e6e6e"/>
<rect x="220" y="18" width="8" height="52" fill="#6e6e6e"/>
<rect x="220" y="70" width="8" height="41" fill="#6e6e6e"/>
<rect x="220" y="111" width="8" height="26" fill="#6e6e6e"/>
<rect x="220" y="137" width="8" height="37" fill="#6e6e6e"/>
<rect x="220" y="174" width="8" height="35" fill="#6e6e6e"/>
<rect x="220" y="209" width="8" height="44" fill="#6e6e6e"/>
<rect x="220" y="253" width="8" height="37" fill="#6e6e6e"/>
<rect x="220" y="290" width="8" height="30" fill="#6e6e6e"/>
<rect x="220" y="320" width="8" height="29" fill="#6e6e6e"/>
<rect x="222" y="349" width="4" height="38" fill="#a6a6a6"/>
<rect x="222" y="387" width="4" height="34" fill="#a6a6a6"/>
<rect x="222" y="421" width="4" height="20" fill="#a6a6a6"/>
<rect x="252" y="18" width="4" height="32" fill="#a6a6a6"/>
<rect x="252" y="50" width="4" height="20" fill="#a6a6a6"/>
<rect x="250" y="70" width="8" height="41" fill="#6e6e6e"/>
<rect x="250" y="111" width="8" height="26" fill="#6e6e6e"/>
<rect x="250" y="137" width="8" height="37" fill="#6e6e6e"/>
<rect x="250" y="174" width="8" height="35" fill="#6e6e6e"/>
<rect x="250" y="209" width="8" height="44" fill="#6e6e6e"/>
<rect x="250" y="253" width="8" height="39" fill="#6e6e6e"/>
<rect x="250" y="292" width="8" height="28" fill="#6e6e6e"/>
<rect x="250" y="320" width="8" height="29" fill="#6e6e6e"/>
<rect x="252" y="349" width="4" height="38" fill="#a6a6a6"/>
<rect x="252" y="387" width="4" height="34" fill="#a6a6a6"/>
<rect x="252" y="421" width="4" height="20" fill="#a6a6a6"/>
<rect x="252" y="441" width="4" height="40" fill="#a6a6a6"/>
<rect x="252" y="481" width="4" height="31" fill="#a6a6a6"/>
<rect x="280" y="0" width="4" height="18" fill="#a6a6a6"/>
<rect x="280" y="18" width="4" height="32" fill="#a6a6a6"/>
<rect x="280" y="50" width="4" height="20" fill="#a6a6a6"/>
<rect x="280" y="70" width="4" height="41" fill="#a6a6a6"/>
<rect x="280" y="111" width="4" height="26" fill="#a6a6a6"/>
<rect x="280" y="137" width="4" height="37" fill="#a6a6a6"/>
<rect x="280" y="174" width="4" height="35" fill="#a6a6a6"/>
<rect x="280" y="209" width="4" height="44" fill="#a6a6a6"/>
<rect x="280" y="253" width="4" height="39" fill="#a6a6a6"/>
<rect x="280" y="292" width="4" height="28" fill="#a6a6a6"/>
<rect x="278" y="320" width="8" height="29" fill="#6e6e6e"/>
<rect x="280" y="349" width="4" height="38" fill="#a6a6a6"/>
<rect x="280" y="387" width="4" height="34" fill="#a6a6a6"/>
<rect x="280" y="421" width="4" height="20" fill="#a6a6a6"/>
<rect x="280" y="441" width="4" height="40" fill="#a6a6a6"/>
<rect x="280" y="481" width="4" height="31" fill="#a6a6a6"/>
<rect x="308" y="137" width="4" height="37" fill="#a6a6a6"/>
<rect x="308" y="174" width="4" height="35" fill="#a6a6a6"/>
<rect x="308" y="209" width="4" height="44" fill="#a6a6a6"/>
<rect x="308" y="253" width="4" height="39" fill="#a6a6a6"/>
<rect x="308" y="292" width="4" height="28" fill="#a6a6a6"/>
<rect x="308" y="320" width="4" height="29" fill="#a6a6a6"/>
<rect x="308" y="349" width="4" height="38" fill="#a6a6a6"/>
<rect x="308" y="387" width="4" height="54" fill="#a6a6a6"/>
<rect x="308" y="441" width="4" height="40" fill="#a6a6a6"/>
<rect x="308" y="481" width="4" height="31" fill="#a6a6a6"/>
<rect x="354" y="0" width="4" height="35" fill="#a6a6a6"/>
<rect x="354" y="35" width="4" height="35" fill="#a6a6a6"/>
<rect x="354" y="70" width="4" height="67" fill="#a6a6a6"/>
<rect x="354" y="137" width="4" height="37" fill="#a6a6a6"/>
<rect x="354" y="174" width="4" height="79" fill="#a6a6a6"/>
<rect x="354" y="253" width="4" height="96" fill="#a6a6a6"/>
<rect x="405" y="0" width="12" height="35" fill="#2b2b2b"/>
<rect x="405" y="35" width="12" height="102" fill="#2b2b2b"/>
<rect x="405" y="137" width="12" height="37" fill="#2b2b2b"/>
<rect x="405" y="174" width="12" height="79" fill="#2b2b2b"/>
<rect x="405" y="253" width="12" height="50" fill="#2b2b2b"/>
<rect x="405" y="303" width="12" height="46" fill="#2b2b2b"/>
<rect x="405" y="349" width="12" height="33" fill="#2b2b2b"/>
<rect x="405" y="382" width="12" height="59" fill="#2b2b2b"/>
<rect x="405" y="441" width="12" height="71" fill="#2b2b2b"/>
<rect x="47" y="16" width="28" height="4" fill="#a6a6a6"/>
<rect x="75" y="16" width="38" height="4" fill="#a6a6a6"/>
<rect x="113" y="16" width="37" height="4" fill="#a6a6a6"/>
<rect x="150" y="16" width="34" height="4" fill="#a6a6a6"/>
<rect x="184" y="16" width="40" height="4" fill="#a6a6a6"/>
<rect x="224" y="16" width="30" height="4" fill="#a6a6a6"/>
<rect x="254" y="16" width="28" height="4" fill="#a6a6a6"/>
<rect x="356" y="33" width="55" height="4" fill="#a6a6a6"/>
<rect x="411" y="31" width="101" height="8" fill="#6e6e6e"/>
<rect x="150" y="44" width="34" height="4" fill="#a6a6a6"/>
<rect x="47" y="46" width="28" height="4" fill="#a6a6a6"/>
<rect x="254" y="48" width="28" height="4" fill="#a6a6a6"/>
<rect x="0" y="66" width="47" height="8" fill="#6e6e6e"/>
<rect x="47" y="66" width="28" height="8" fill="#6e6e6e"/>
<rect x="75" y="66" width="38" height="8" fill="#6e6e6e"/>
<rect x="113" y="66" width="37" height="8" fill="#6e6e6e"/>
<rect x="150" y="66" width="34" height="8" fill="#6e6e6e"/>
<rect x="184" y="66" width="40" height="8" fill="#6e6e6e"/>
<rect x="224" y="68" width="30" height="4" fill="#a6a6a6"/>
<rect x="254" y="68" width="28" height="4" fill="#a6a6a6"/>
<rect x="282" y="68" width="74" height="4" fill="#a6a6a6"/>
<rect x="47" y="90" width="28" height="4" fill="#a6a6a6"/>
<rect x="113" y="105" width="37" height="8" fill="#6e6e6e"/>
<rect x="224" y="107" width="30" height="8" fill="#6e6e6e"/>
<rect x="254" y="107" width="28" height="8" fill="#6e6e6e"/>
<rect x="0" y="131" width="47" height="12" fill="#2b2b2b"/>
<rect x="47" y="131" width="28" height="12" fill="#2b2b2b"/>
<rect x="75" y="131" width="38" height="12" fill="#2b2b2b"/>
<rect x="113" y="131" width="37" height="12" fill="#2b2b2b"/>
<rect x="150" y="131" width="34" height="12" fill="#2b2b2b"/>
<rect x="184" y="131" width="40" height="12" fill="#2b2b2b"/>
<rect x="224" y="131" width="30" height="12" fill="#2b2b2b"/>
<rect x="254" y="131" width="28" height="12" fill="#2b2b2b"/>
<rect x="282" y="131" width="28" height="12" fill="#2b2b2b"/>
<rect x="310" y="131" width="46" height="12" fill="#2b2b2b"/>
<rect x="356" y="131" width="55" height="12" fill="#2b2b2b"/>
<rect x="411" y="131" width="101" height="12" fill="#2b2b2b"/>
<rect x="150" y="170" width="34" height="8" fill="#6e6e6e"/>
<rect x="184" y="170" width="40" height="8" fill="#6e6e6e"/>
<rect x="224" y="170" width="30" height="8" fill="#6e6e6e"/>
<rect x="254" y="172" width="28" height="4" fill="#a6a6a6"/>
<rect x="282" y="172" width="28" height="4" fill="#a6a6a6"/>
<rect x="310" y="172" width="46" height="4" fill="#a6a6a6"/>
<rect x="356" y="172" width="55" height="4" fill="#a6a6a6"/>
<rect x="47" y="185" width="28" height="4" fill="#a6a6a6"/>
<rect x="75" y="183" width="38" height="8" fill="#6e6e6e"/>
<rect x="0" y="207" width="47" height="4" fill="#a6a6a6"/>
<rect x="47" y="207" width="28" height="4" fill="#a6a6a6"/>
<rect x="75" y="207" width="38" height="4" fill="#a6a6a6"/>
<rect x="113" y="207" width="37" height="4" fill="#a6a6a6"/>
<rect x="150" y="205" width="34" height="8" fill="#6e6e6e"/>
<rect x="184" y="205" width="40" height="8" fill="#6e6e6e"/>
<rect x="224" y="205" width="30" height="8" fill="#6e6e6e"/>
<rect x="254" y="207" width="28" height="4" fill="#a6a6a6"/>
<rect x="282" y="207" width="28" height="4" fill="#a6a6a6"/>
<rect x="0" y="251" width="47" height="4" fill="#a6a6a6"/>
<rect x="47" y="251" width="28" height="4" fill="#a6a6a6"/>
<rect x="75" y="251" width="38" height="4" fill="#a6a6a6"/>
<rect x="113" y="251" width="37" height="4" fill="#a6a6a6"/>
<rect x="150" y="251" width="34" height="4" fill="#a6a6a6"/>
<rect x="184" y="251" width="40" height="4" fill="#a6a6a6"/>
<rect x="224" y="251" width="30" height="4" fill="#a6a6a6"/>
<rect x="254" y="251" width="28" height="4" fill="#a6a6a6"/>
<rect x="282" y="251" width="28" height="4" fill="#a6a6a6"/>
<rect x="310" y="251" width="46" height="4" fill="#a6a6a6"/>
<rect x="356" y="251" width="55" height="4" fill="#a6a6a6"/>
<rect x="411" y="249" width="101" height="8" fill="#6e6e6e"/>
<rect x="0" y="288" width="34" height="4" fill="#a6a6a6"/>
<rect x="34" y="288" width="41" height="4" fill="#a6a6a6"/>
<rect x="75" y="288" width="38" height="4" fill="#a6a6a6"/>
<rect x="113" y="288" width="37" height="4" fill="#a6a6a6"/>
<rect x="150" y="286" width="34" height="8" fill="#6e6e6e"/>
<rect x="184" y="286" width="40" height="8" fill="#6e6e6e"/>
<rect x="254" y="290" width="28" height="4" fill="#a6a6a6"/>
<rect x="282" y="290" width="28" height="4" fill="#a6a6a6"/>
<rect x="411" y="301" width="101" height="4" fill="#a6a6a6"/>
<rect x="0" y="318" width="34" height="4" fill="#a6a6a6"/>
<rect x="34" y="318" width="41" height="4" fill="#a6a6a6"/>
<rect x="75" y="318" width="38" height="4" fill="#a6a6a6"/>
<rect x="113" y="318" width="37" height="4" fill="#a6a6a6"/>
<rect x="150" y="316" width="34" height="8" fill="#6e6e6e"/>
<rect x="184" y="316" width="40" height="8" fill="#6e6e6e"/>
<rect x="224" y="316" width="30" height="8" fill="#6e6e6e"/>
<rect x="254" y="316" width="28" height="8" fill="#6e6e6e"/>
<rect x="282" y="316" width="28" height="8" fill="#6e6e6e"/>
<rect x="34" y="347" width="41" height="4" fill="#a6a6a6"/>
<rect x="75" y="347" width="38" height="4" fill="#a6a6a6"/>
<rect x="113" y="347" width="37" height="4" fill="#a6a6a6"/>
<rect x="150" y="347" width="34" height="4" fill="#a6a6a6"/>
<rect x="184" y="347" width="40" height="4" fill="#a6a6a6"/>
<rect x="224" y="347" width="30" height="4" fill="#a6a6a6"/>
<rect x="254" y="347" width="28" height="4" fill="#a6a6a6"/>
<rect x="282" y="347" width="28" height="4" fill="#a6a6a6"/>
<rect x="310" y="347" width="46" height="4" fill="#a6a6a6"/>
<rect x="356" y="347" width="55" height="4" fill="#a6a6a6"/>
<rect x="411" y="380" width="101" height="4" fill="#a6a6a6"/>
<rect x="0" y="385" width="34" height="4" fill="#a6a6a6"/>
<rect x="34" y="385" width="41" height="4" fill="#a6a6a6"/>
<rect x="75" y="385" width="35" height="4" fill="#a6a6a6"/>
<rect x="110" y="385" width="40" height="4" fill="#a6a6a6"/>
<rect x="150" y="385" width="34" height="4" fill="#a6a6a6"/>
<rect x="184" y="385" width="40" height="4" fill="#a6a6a6"/>
<rect x="224" y="385" width="30" height="4" fill="#a6a6a6"/>
<rect x="254" y="385" width="28" height="4" fill="#a6a6a6"/>
<rect x="282" y="385" width="28" height="4" fill="#a6a6a6"/>
<rect x="34" y="405" width="41" height="4" fill="#a6a6a6"/>
<rect x="75" y="405" width="35" height="4" fill="#a6a6a6"/>
<rect x="184" y="419" width="40" height="4" fill="#a6a6a6"/>
<rect x="224" y="419" width="30" height="4" fill="#a6a6a6"/>
<rect x="254" y="419" width="28" height="4" fill="#a6a6a6"/>
<rect x="0" y="439" width="34" height="4" fill="#a6a6a6"/>
<rect x="34" y="439" width="41" height="4" fill="#a6a6a6"/>
<rect x="75" y="439" width="35" height="4" fill="#a6a6a6"/>
<rect x="110" y="439" width="40" height="4" fill="#a6a6a6"/>
<rect x="150" y="439" width="34" height="4" fill="#a6a6a6"/>
<rect x="184" y="439" width="40" height="4" fill="#a6a6a6"/>
<rect x="224" y="439" width="30" height="4" fill="#a6a6a6"/>
<rect x="254" y="439" width="28" height="4" fill="#a6a6a6"/>
<rect x="282" y="439" width="28" height="4" fill="#a6a6a6"/>
<rect x="310" y="439" width="101" height="4" fill="#a6a6a6"/>
<rect x="411" y="439" width="101" height="4" fill="#a6a6a6"/>
<rect x="254" y="479" width="28" height="4" fill="#a6a6a6"/>
<rect x="282" y="479" width="28" height="4" fill="#a6a6a6"/>
<rect x="148" y="189" width="40" height="22" fill="none" stroke="#d81b60" stroke-width="1"/>
<text x="148" y="187" font-family="sans-serif" font-size="6" fill="#d81b60">core</text>
<rect x="472" y="490" width="40" height="22" fill="none" stroke="#1e88e5" stroke-width="1"/>
<text x="472" y="488" font-family="sans-serif" font-size="6" fill="#1e88e5">periphery</text>
<rect x="8" y="516" width="16" height="16" fill="#bfe3bf"/>
<text x="28" y="528" font-family="sans-serif" font-size="12" fill="#111">residential</text>
<rect x="148" y="516" width="16" height="16" fill="#bcd9f7"/>
<text x="168" y="528" font-family="sans-serif" font-size="12" fill="#111">commercial</text>
<rect x="288" y="516" width="16" height="16" fill="#f2cf9e"/>
<text x="308" y="528" font-family="sans-serif" font-size="12" fill="#111">industrial</text>
<rect x="428" y="516" width="16" height="16" fill="#ddc2ef"/>
<text x="448" y="528" font-family="sans-serif" font-size="12" fill="#111">institutional</text>
<rect x="8" y="544" width="16" height="16" fill="#2b2b2b"/>
<text x="28" y="556" font-family="sans-serif" font-size="12" fill="#111">arterial</text>
<rect x="118" y="544" width="16" height="16" fill="#6e6e6e"/>
<text x="138" y="556" font-family="sans-serif" font-size="12" fill="#111">street</text>
<rect x="228" y="544" width="16" height="16" fill="#a6a6a6"/>
<text x="248" y="556" font-family="sans-serif" font-size="12" fill="#111">lane</text>
</svg>
